<?xml version="1.0" encoding="UTF-8"?>
<svg id="Calque_1" xmlns="http://www.w3.org/2000/svg" version="1.1" viewBox="0 0 1315.4 1284.56">
  <!-- Generator: Adobe Illustrator 29.7.1, SVG Export Plug-In . SVG Version: 2.1.1 Build 8)  -->
  <defs>
    <style>
      .st0 {
        fill: #644a30;
      }

      .st1 {
        fill: #987549;
      }

      .st2 {
        fill: #a88562;
      }

      .st3 {
        fill: #977449;
      }
    </style>
  </defs>
  <circle class="st2" cx="657.7" cy="642.28" r="637.8"/>
  <path class="st3" d="M657.7,1280.07l127.88-686.07,194.03,599-321.91,87.07Z"/>
  <path class="st2" d="M657.7,1280.07l-321.91-87.07,449.79-599-127.88,686.07Z"/>
  <path class="st0" d="M785.58,594l422.84-273.63,87.07,321.91-509.91-48.28Z"/>
  <path class="st3" d="M785.58,594l194.03-502.44,228.81,228.81-422.84,273.63Z"/>
  <path class="st3" d="M398.27,364.85l-62.48-273.29L657.7,4.48l-259.43,360.37Z"/>
  <path class="st2" d="M106.98,320.37l228.81-228.81,62.48,273.29-291.29-44.48Z"/>
  <path class="st2" d="M1208.42,964.19l-422.84-370.19,509.91,48.28-87.07,321.91Z"/>
  <path class="st2" d="M398.27,364.85L657.7,4.48l127.88,589.52-387.31-229.15Z"/>
  <path class="st2" d="M785.58,594L657.7,4.48l321.91,87.08-194.03,502.44Z"/>
  <g>
    <path class="st3" d="M106.98,964.19L398.27,364.85l387.31,229.15L106.98,964.19Z"/>
    <path class="st0" d="M335.79,1193l-228.81-228.81,678.6-370.19-449.79,599Z"/>
    <path class="st1" d="M106.98,964.19L19.9,642.28l378.37-277.43L106.98,964.19Z"/>
    <path class="st0" d="M19.9,642.28l124.8-215.54,253.57-61.89L19.9,642.28Z"/>
    <path class="st0" d="M144.7,426.74l-37.72-106.37,291.29,44.48-253.57,61.89Z"/>
    <path class="st0" d="M19.9,642.28l87.08-321.91,37.72,106.37-124.8,215.54Z"/>
  </g>
  <path class="st3" d="M979.61,1193l-194.03-599,422.84,370.19-228.81,228.81Z"/>
</svg>