<?xml version="1.0" encoding="UTF-8"?>
<svg id="Calque_1" xmlns="http://www.w3.org/2000/svg" version="1.1" viewBox="0 0 1315.4 1284.56">
  <!-- Generator: Adobe Illustrator 29.7.1, SVG Export Plug-In . SVG Version: 2.1.1 Build 8)  -->
  <defs>
    <style>
      .st0 {
        fill: #644b31;
      }

      .st1 {
        fill: #a98662;
      }

      .st2 {
        fill: #ffebc7;
      }

      .st2, .st3, .st4, .st5, .st6, .st7, .st8, .st9, .st10, .st11, .st12, .st13, .st14 {
        stroke: #1d1d1b;
        stroke-miterlimit: 10;
      }

      .st3 {
        fill: #7c5b38;
      }

      .st4 {
        fill: #2f1f11;
      }

      .st5 {
        fill: #c6956c;
      }

      .st6 {
        fill: #e0ac82;
      }

      .st7 {
        fill: #fde1c6;
      }

      .st8 {
        fill: #fdd7ae;
      }

      .st15 {
        fill: #af8b6a;
      }

      .st9 {
        fill: #593c12;
      }

      .st10 {
        fill: #ba8466;
      }

      .st11 {
        fill: #553212;
      }

      .st12 {
        fill: #ce9566;
      }

      .st13 {
        fill: #a77b52;
      }

      .st14 {
        fill: #603511;
      }
    </style>
  </defs>
  <circle class="st1" cx="657.7" cy="646.77" r="637.8"/>
  <polygon class="st9" points="657.7 1284.56 785.58 598.49 979.61 1197.49 657.7 1284.56"/>
  <polygon class="st2" points="657.7 1284.56 335.79 1197.49 785.58 598.49 657.7 1284.56"/>
  <polygon class="st7" points="785.58 598.49 1208.42 324.86 1295.49 646.77 785.58 598.49"/>
  <polygon class="st15" points="785.58 598.49 979.61 96.05 1208.42 324.86 785.58 598.49"/>
  <polygon class="st13" points="398.27 369.34 335.79 96.05 657.7 8.97 398.27 369.34"/>
  <polygon class="st8" points="106.98 324.86 335.79 96.05 398.27 369.34 106.98 324.86"/>
  <polygon class="st3" points="1208.42 968.68 785.58 598.49 1295.49 646.77 1208.42 968.68"/>
  <polygon class="st4" points="398.27 369.34 657.7 8.97 785.58 598.49 398.27 369.34"/>
  <polygon class="st1" points="785.58 598.49 657.7 8.97 979.61 96.05 785.58 598.49"/>
  <polygon class="st14" points="106.98 968.68 398.27 369.34 785.58 598.49 106.98 968.68"/>
  <polygon class="st10" points="335.79 1197.49 106.98 968.68 785.58 598.49 335.79 1197.49"/>
  <polygon class="st5" points="106.98 968.68 19.9 646.77 398.27 369.34 106.98 968.68"/>
  <polygon class="st12" points="19.9 646.77 144.7 431.23 398.27 369.34 19.9 646.77"/>
  <polygon class="st11" points="144.7 431.23 106.98 324.86 398.27 369.34 144.7 431.23"/>
  <polygon class="st6" points="19.9 646.77 106.98 324.86 144.7 431.23 19.9 646.77"/>
  <polygon class="st0" points="979.61 1197.49 785.58 598.49 1208.42 968.68 979.61 1197.49"/>
</svg>