<?xml version="1.0" encoding="UTF-8"?>
<svg id="Calque_1" xmlns="http://www.w3.org/2000/svg" version="1.1" viewBox="0 0 3402.35 331.56">
  <!-- Generator: Adobe Illustrator 29.7.1, SVG Export Plug-In . SVG Version: 2.1.1 Build 8)  -->
  <defs>
    <style>
      .st0 {
        fill: #b59272;
      }

      .st1 {
        fill: #987449;
      }

      .st2 {
        fill: #c3a486;
      }

      .st3 {
        fill: #644b31;
      }

      .st4 {
        fill: #a98662;
      }

      .st5 {
        fill: #7a5c3c;
      }

      .st6 {
        fill: #646361;
      }

      .st7 {
        fill: #876947;
      }

      .st8 {
        fill: #af8b6a;
      }

      .st9 {
        fill: #725438;
      }

      .st10 {
        fill: #573f27;
      }

      .st11 {
        fill: #816240;
      }
    </style>
  </defs>
  <rect class="st1" x="1550.77" y="59.13" width="300.66" height="131.92"/>
  <g>
    <g>
      <path class="st1" d="M998.57,229.18c1.58.54,4.14,2.31,5.72,2.86,27.67,9.71,56.86,20.09,84.13,30.76,1.49.58,3.08.26,2.59,2.61-39.04-2.87-81.27-12.73-120.69-17.04-2.03-.22-4.03-.16-6.06-.12-.48-.29-1.48-.18-1.91-.95l33.35-16.2-51.46,10.48c-.96-.19-2.71-.05-3.81,0v-.95c-.81-1.94-2.68-2.73-4.27-3.84-23.24-16.13-49.45-29.75-72.92-45.74.6-.12.74-1.14,3.03-.81,6.81.99,18.38,4.96,25.56,7,34.46,9.77,73.19,20.41,106.72,31.95Z"/>
      <path class="st1" d="M1569.4,83.3c.12,2.52-.19,5.12,0,7.63l-2.86,24.8c-2.57-.12-5.06-.69-7.62-.96l-70.52-17.16c23.94-3.91,49.01-7.87,72.76-12.54,1.61-.32,3.29-.35,4.43-1.77h3.81Z"/>
      <path class="st11" d="M378.19,130.97l12.39,15.26c-7.74,2.2-20.63,7.58-28.85,10.7-3.16,1.2-16.64,6.08-18.2,7.35-1.09.88-.5,1.8-.6,2.93,14.14-.1,28.35,1.04,42.37,1.95,4.74.31,9.43.51,13.86.91l-31.44,16.73-3.82.43-26.22-20.01c-1.29-.53-1.51-.01-1.26,1.25,1.04,5.29,1.36,10.69,2.7,15.9-4.36-1.13-12.23-1.19-17.15-1.91-.91-.13-1.95.13-2.86,0-2.74-.39-6.81-1.55-9.53-1.91v-.95c9.18-3.17,18.83-7.79,26.68-13.35,6.45-4.56,12.1-10.17,18.11-15.26.73-.62,2.24-.99,3.31-1.9,6.38-5.44,12.37-11.56,18.61-17.17.4-.11,1.04-.72,1.91-.95Z"/>
      <path class="st9" d="M859.44,189.14c.66.21,2.32-.35,2.79.06.37.32-.11,1.5.07,1.85l14.29,29.56c-24.59-7.21-49.62-13.23-74.33-20.02l57.18-11.44Z"/>
      <path class="st0" d="M859.44,189.14l-57.18,11.44c-.37-.26-.66-.61-.95-.95-5.7-6.65-11.37-17.25-16.2-24.79,16.12.37,58.41,9.21,74.33,14.3Z"/>
      <path class="st3" d="M940.44,240.63c-21.44-6.03-42.5-13.76-63.85-20.02l-14.29-29.56s.78.03.95,0c23.47,15.99,49.68,29.61,72.92,45.74,1.59,1.1,3.46,1.89,4.27,3.84Z"/>
      <path class="st3" d="M1565.58,137.65c.58.64,1.3.62.76,2.04l-5.56,32.27c-6.95-1.06-13.92-2.17-20.93-2.84-1.25-.12-2.56.12-3.81,0-6.79-.66-16.9-2.69-22.87-2.86l52.41-28.6Z"/>
      <path class="st1" d="M785.1,174.83c4.83,7.54,10.5,18.14,16.2,24.79-1.9-.08-3.82.11-5.72,0-1.12-1.42-2.84-1.41-4.42-1.78-18.88-4.45-40.83-11.23-59.43-14.43.99-1.77,2.65-1.58,4.32-1.88,13.73-2.47,32.51-5.4,46.19-6.7.92-.09,1.93-.02,2.86,0Z"/>
      <path class="st7" d="M678.37,178.65c-1.37,1.15-3.48.57-2.86,2.86-4.44.02-8.9-.02-13.34,0l8.58,13.34-18.42-9.75c-.87-.77-2.98-.44-3.5-.74-13.96-7.96-26.57-17.18-41.93-23.84-.79-4.41-3.23-8.29-4.76-12.4-.17-.45.11-1.32,0-1.91,20.13,7.91,39.6,23.09,58.83,33.14,5.96.03,11.76-.8,17.4-.72Z"/>
      <path class="st9" d="M169.49,85.21c.32,0,.64-.01.95,0l5.72,22.88c-14.29,0-38.22-6.02-53.37-8.58-1.89-.32-3.71-1.22-5.72-.95.26-.12.57-.82.95-.95,16.04-5.43,35.16-7.07,51.46-12.4Z"/>
      <path class="st1" d="M191.41,166.25v.95c-12.09.34-25.28,3.18-37.17,5.72-1.27,0-2.54,0-3.81,0l-.95.95c-28.36-.04-56.57.47-84.81.95-1.9.03-3.81-.04-5.72,0-3.8.07-7.63-.06-11.44,0-6.65.11-13.36-.17-20.01,0-.53-2.88,1.46-1.85,3.29-1.91,53.66-1.81,106.95-5.56,160.62-6.67Z"/>
      <path class="st1" d="M260.02,121.44c4.43-.22,8.14,2.8,11.73,4.94,11.09,6.62,22.27,14.1,32.97,21.36,2.87,1.94,9.07,8.3,11.75,7.81.59-.11,2.45-1.25,3.58-1.7v.95c-7.61,1.6.17,3.38,1.9,4.29,4.7,2.47,9.04,5.78,14.3,7.15-7.85,5.56-17.51,10.17-26.68,13.35,1.91-7.67,4.52-14.12,3.81-21.93-.03-.3.92-1.23.94-1.87l-56.21-17.2c-.29-.09-.66.09-.95,0-2.08-5.72,2.56-11.29,2.86-17.16Z"/>
      <path class="st7" d="M1470.29,99.51c-10.26,1.68-20.76,3.84-31.04,5.7-1.77.32-3.81-1.09-3.27,1.93-.63-.03-1.27,0-1.91,0-15.15-.22-38.03,2.65-53.37,4.77-1.12.15-2.15.85-2.86.95-.91.13-1.95-.13-2.86,0-1.05.15-1.77.93-1.91.95-.93.14-1.68.92-1.91.95-3.8.64-9.13.11-13.34.95,5.69-2.26,12.17-3.37,17.9-5.44,2.2-.8,4.17-2.48,5.92-3.14,4.59-1.71,9.26-2.5,13.34-4.77.62-.07,1.28.06,1.91,0,2.31-.22,5.09-.83,6.67-.95,20.3-1.62,41.4-.68,61.59-2.75,1.56-.16,4.13-.78,5.12.85Z"/>
      <path class="st4" d="M217.14,100.46c-12.21.88-26.78,7.06-40.02,7.63-.32.01-.64,0-.95,0l-5.72-22.88c4.72.16,17.3,4.77,22.65,6.42,7.95,2.45,16.72,5.11,24.05,8.84Z"/>
      <path class="st1" d="M427.74,121.44l-33.35,23.84c-1.19.29-2.66.63-3.81.95l-12.39-15.26c16.24-4.46,33.12-8.14,49.55-9.53Z"/>
      <path class="st11" d="M219.04,100.46l2.86,22.88c-9.05-.61-32.02-9.52-41.97-12.88-1.54-.52-3.37.17-2.82-2.37,13.25-.57,27.81-6.75,40.02-7.63.63-.05,1.27.03,1.91,0Z"/>
      <path class="st4" d="M545.91,129.07c-5.54-.11-11.06.51-16.56,1.08-10.02,1.03-20.2,3.07-30.14,4.65-1.97-.3-6.9-.87-8.58-.95l-5.72-15.26c14.34.32,40.91,4.94,55.45,7.92,1.93.4,4.67.39,5.54,2.57Z"/>
      <path class="st4" d="M1490.3,88.07l-6.67,9.53c-4.41.72-8.93,1.19-13.34,1.91-.98-1.63-3.55-1.01-5.12-.85-20.19,2.08-41.3,1.13-61.59,2.75v-.95c28.57-4.84,58.2-9.49,86.72-12.4Z"/>
      <path class="st4" d="M219.04,100.46l40.41,18.03c.98.4.5,1.27.57,2-12.13-.57-25.29,2.86-37.17,2.86-.32,0-.64.02-.95,0l-2.86-22.88Z"/>
      <path class="st1" d="M432.51,120.49l53.37,13.35c-16.55,3.05-32.11,1.78-48.6,3.81l-6.67-16.21c.21-.02,1.02-.9,1.91-.95Z"/>
      <path class="st4" d="M169.49,85.21c-16.3,5.32-35.42,6.97-51.46,12.4v-.95c1.53-5.74,6.71-10.46,8.86-15.61.29-.69.53-1.14-.29-1.55v-.95c14.31.99,28.84,3.88,42.88,6.67Z"/>
      <path class="st2" d="M484.92,118.58l5.72,15.26c-1.35-.07-3.57-.22-4.76,0l-53.37-13.35c4.5-.29,7.76-.32,12.39-.95,2.24,2.5,6.15.14,8.58,0,9.42-.55,22.16-1.16,31.45-.95Z"/>
      <path class="st3" d="M1072.9,213.93c-2.57,2.59-7.89,3.99-11.47,5.21-12.47,4.23-26.88,7.56-38.85,12.62-1.69.71-3.17.67-3.05,3.15-5-1.17-10.13-2.31-15.25-2.86-1.58-.55-4.14-2.32-5.72-2.86,15.32-1.97,29.59-8.96,44.79-11.44,9.76-1.59,19.76-1.99,29.54-3.81Z"/>
      <path class="st2" d="M1561.77,83.3c1.27-.03,2.54,0,3.81,0-1.14,1.41-2.82,1.45-4.43,1.77-23.75,4.66-48.82,8.62-72.76,12.54-1.46.24-3.3-.24-4.76,0l6.67-9.53c3.17-.32,9.15-1.91,11.91-1.91h15.25c4.08,0,11.03-.7,15.72-.95,7.22-.39,15.01-1.56,21.92-1.91,2.21-.11,4.46.06,6.67,0Z"/>
      <path class="st1" d="M1231.09,149.09c-3.31,3.23-26.38,12.51-32.4,15.26-13.75,6.27-27.72,11.85-41.93,17.64-18.19,7.42-36.52,15.27-55.27,21.45,22.41-10.57,45.98-21.27,68.61-31.47,17.37-7.83,35.9-15.54,54.1-21.67,2.2-.74,4.55-1.23,6.89-1.22Z"/>
      <path class="st4" d="M430.6,121.44l6.67,16.21c-12.04,1.48-31.2,4.77-42.88,7.63l33.35-23.84c.94-.08,1.92.08,2.86,0Z"/>
      <path class="st7" d="M1170.1,171.97c-22.63,10.2-46.2,20.9-68.61,31.47-8.39,3.96-14.57,7.48-23.82,9.53,2.44-2.24,3.87-6.33,5.72-8.58.67-.81,1.17-1.77,2.31-2.04,26.8-8.72,52.79-19.86,79.29-29.31,1.72-.61,3.16-1.44,5.12-1.07Z"/>
      <path class="st4" d="M376.28,131.93c-6.24,5.61-12.23,11.73-18.61,17.17-1.07.91-2.58,1.29-3.31,1.9-10.81,2.28-23.79,1.6-34.31,3.81v-.95c20.13-7.92,34.62-15.74,56.23-21.93Z"/>
      <path class="st7" d="M545.91,129.07c.32,0,.64-.02.95,0v.95l-.95,11.44c-14.36-2.58-32.04-4.46-46.7-6.67,9.94-1.58,20.12-3.62,30.14-4.65,5.5-.56,11.01-1.18,16.56-1.08Z"/>
      <path class="st11" d="M260.02,120.49c.03.3.02.65,0,.95-.29,5.87-4.94,11.45-2.86,17.16-11.71-3.76-23.71-9.07-34.31-15.26,11.88,0,25.04-3.43,37.17-2.86Z"/>
      <path class="st7" d="M43.7,83.3c.24,1.63-.35,9.21,0,9.53.18.16,4.26.9,4.76.96L-.14,96.64c-2.96-2.57,11.6-4.71,12.6-5.02,7.57-2.34,19.99-8.09,27.22-9.1,2.28-.32,2.68.54,4.01.78Z"/>
      <path class="st8" d="M602.13,146.23c.11.59-.17,1.46,0,1.91-5.65-1.03-12.04,2.47-17.15,2.86-2.73.21-3.85-.71-5.72-.95-6.9-5.19-14.27-10.57-21.63-15.07-3.1-1.9-7.13-4.54-10.77-4.95v-.95c11.47.68,43.21,12.42,55.27,17.16Z"/>
      <path class="st0" d="M782.24,174.83c-13.68,1.3-32.46,4.23-46.19,6.7-1.67.3-3.33.11-4.32,1.88-1.13-.19-2.58.1-3.81,0-.15-.01-.9-1.02-1.91-.95l-3.81-9.53c11.33-.6,22.66.49,33.84.94,8.73.35,17.49.09,26.2.96Z"/>
      <path class="st1" d="M722.21,172.93l3.81,9.53c-.96.06-5.75,1.52-7.62,1.91-.99-1.61-2.58-1.77-4.27-1.93-11.3-1.05-27.02-.98-38.62-.93-.62-2.29,1.49-1.71,2.86-2.86.95.01,1.91-.02,2.86,0,1.04.02,2.41.25,2.86-.95,1.24.09,2.57.03,3.81,0,1.04-.03,2.4.28,2.86-.95,1.24.09,2.57.03,3.81,0,1.04-.03,2.4.28,2.86-.95.8.1,4.58.15,4.76,0l1.91-.95c1.74.13,3.98.13,5.72,0,1.55-.12,2.63-.93,2.86-.95,3.25-.3,6.21-.78,9.53-.95Z"/>
      <path class="st4" d="M83.72,77.58v.95c-.84-.09-1.9-.24-2.63.21-1.23.77-8.69,11.94-9.76,14.09-.08.16-.95.34-.95.95-.61-.08-1.28.03-1.91,0-.4-.88-1.32-.69-1.91-.95-6.83-3.04-14.75-7.63-21.92-9.53-.53-3.07,1.55-1.64,3.34-1.86,11.88-1.46,24.12-3.73,35.74-3.86Z"/>
      <path class="st5" d="M1268.26,138.6c.45,2.39-5.6,3.81-7.46,4.45-18.1,6.2-35.64,13.47-53.56,19.83-2.17.77-6.33,2.22-8.54,1.47,6.02-2.75,29.09-12.03,32.4-15.26.15-.14-.55-1.27.63-1.93,2.81-1.57,21.78-7.36,25.1-7.61,3.54-.26,7.04-.08,11.44-.95Z"/>
      <path class="st3" d="M1338.78,120.49c-23.24,5.37-66.73,18.36-74.17,21.32,0,0-4.25-2.51-7.79-2.25,9.27-2.99,20.01-7.89,29.3-10.26,3.47-.88,8.84-4.23,12.68-4.94,3.38-.63,6.75,1.67,10.14,1.03,1.77-.33,3.71.81,3.15-2.04.5.13,1.29-.05,1.91,0,.09,0-.29,1.02,1.43,1s1.34-1,1.43-1c.93-.08,1.95.12,2.86,0,4.66-.64,10.05-1.94,14.8-2.85,1.18-.23,3.6-1.51,4.26,0Z"/>
      <path class="st5" d="M98.97,86.16c4.61,4.42,10.73,7.23,16.2,10.49-4.46,1.09-5.98-.06-10.48,0-1.58.02-3.2-.11-4.76,0-1.03-1.58-3.93-.96-5.72-.95-1.58,0-3.2-.11-4.76,0-1.04-1.6-3.92-.92-5.72-.95-2.22-.04-4.45-.03-6.67,0-.81-.47-2.1-1.71-2.86-1.91,7.46-1.49,14.64-4.67,21.92-6.67.78-.21,2.07.21,2.86,0Z"/>
      <path class="st5" d="M1083.38,204.39c-1.85,2.25-3.28,6.34-5.72,8.58-1.68.37-3.07.64-4.76.95-9.78,1.82-19.78,2.22-29.54,3.81-.48-2.41,1.09-2.03,2.63-2.56,10.09-3.5,21.64-6.87,31.96-10.03,1.85-.57,3.45-1.08,5.43-.75Z"/>
      <path class="st1" d="M1395,102.37c-4.08,2.27-8.75,3.06-13.34,4.77l-59.1,13.86-2.84,2.35c-.9.12-1.93-.08-2.86,0-.95-1.15-1.91-1.16-2.86,0-.62-.05-1.41.13-1.91,0-.74-.19-1.62.08-1.91-.95,26.86-6.95,57.38-17,84.81-20.02Z"/>
      <path class="st8" d="M86.58,77.58c.32,0,.64,0,.95,0,6.1.09,12.02.8,18.11.95h2.86c4.11.16,8.28-.13,12.39,0h1.91c1.26.07,2.55-.09,3.81,0v.95c-9.5.85-18.52,4.22-27.64,6.67-.79.21-2.08-.21-2.86,0-2.78-2.33-9.04-7.25-12.39-7.63v-.95c.95-.01,1.91-.02,2.86,0Z"/>
      <path class="st9" d="M66.57,92.83v.95c-5.82-.36-12.48.63-18.11,0-.5-.06-4.58-.8-4.76-.96-.36-.32.24-7.9,0-9.53.32.06.67-.07.95,0,7.17,1.9,15.09,6.5,21.92,9.53Z"/>
      <path class="st11" d="M1310.19,122.39c.29,1.04,1.17.76,1.91.95.56,2.85-1.38,1.71-3.15,2.04-3.39.64-6.81,1.14-10.19,1.77.1-.73-.28-2.5.05-2.8.43-.39,9.69-1.53,11.39-1.97Z"/>
      <path class="st7" d="M115.17,96.65c.79-.19,1.97.13,2.86,0v.95c-.39.13-.69.84-.95.95-.55.25-.63,1.01-2.32,1.05-1.04.02-9.66-.75-10.07-1.05-.17-.12.11-1.5,0-1.91,4.5-.06,6.02,1.09,10.48,0Z"/>
      <path class="st4" d="M453.47,119.53c-2.43.14-6.34,2.5-8.58,0,2.11-.29,6.17-2.61,8.58,0Z"/>
      <path class="st7" d="M74.19,92.83c.76.2,2.05,1.44,2.86,1.91-4.51.05-3.88-.59-6.67-.95,0-.62.87-.8.95-.95.88.13,2.09-.2,2.86,0Z"/>
      <path class="st1" d="M1403.58,100.46v.95c-1.58.13-4.36.73-6.67.95,1.57-2.58,4.47-1.54,6.67-1.91Z"/>
      <path class="st7" d="M89.44,95.69c-1.67.11-6.37,3.2-5.72-.95,1.8.03,4.68-.65,5.72.95Z"/>
      <path class="st7" d="M99.92,96.65c-1.67.11-6.37,3.2-5.72-.95,1.79,0,4.69-.63,5.72.95Z"/>
      <path class="st7" d="M697.43,175.79c-.46,1.23-1.81.93-2.86.95-.44-3.83,1.84-1.08,2.86-.95Z"/>
      <path class="st7" d="M690.76,176.74c-.46,1.23-1.81.93-2.86.95-.48-3.88,2.03-1.02,2.86-.95Z"/>
      <path class="st7" d="M712.68,173.88c-.23.02-1.3.84-2.86.95-.31-2.26.14-2.1,2.38-1.9l.48.94Z"/>
      <path class="st7" d="M684.09,177.69c-.45,1.2-1.82.97-2.86.95-.48-3.88,2.03-1.02,2.86-.95Z"/>
      <path class="st7" d="M68.47,93.79c-.4-.02-.9.06-1.91,0v-.95c.59.26,1.5.07,1.91.95Z"/>
      <path class="st7" d="M704.1,174.83l-1.91.95c.15-.12-.1-1.35,0-1.9,1-.38,1.79.94,1.9.95Z"/>
      <path class="st4" d="M108.5,78.53h-2.86c.75.02,1.61-.05,2.86,0Z"/>
      <path class="st4" d="M122.79,78.53h-1.91c.48.02.89-.06,1.91,0Z"/>
      <path class="st4" d="M87.53,77.58c-.32,0-.64,0-.95,0l.48-.93.48.93Z"/>
      <path class="st1" d="M1418.83,115.72c11.62.53,26.66,6.53,38.6,7.62,12.74,1.16,27.84-3.54,40.49-2.85.32.02.64-.04.95,0-.56,4.07.31,7.73.95,11.44,2,11.56,8.14,22.1,11.45,33.37,1.28.28,1.07-.99,1.39-1.91,1.51-4.31,9.62-28.11,9.08-30.5,13.05.57,27.41.49,40.29,3.08,1.4.28,2.54.58,3.54,1.68l-52.41,28.6c-.63-.02-1.27-.02-1.91,0l-72.43-22.88c16.12-4.75,33.53-5.7,49.73-9.87,1.69-.44,4.28.12,3.63-2.52-10.34-.11-20.68-2.43-30.98-2.86-15.06-.62-41.67,3.4-56.69,6.66,3.24-5.83,8.45-11.31,11.44-17.16.32-.63.64-1.27.95-1.91.62-.04,1.28-.03,1.91,0Z"/>
      <path class="st5" d="M1511.26,166.25c-15.41.43-43.03,6.92-58.3,10.8-9.22,2.34-31.76,10.8-38.9,11.14l23.82-44.81h.95l72.43,22.88Z"/>
      <path class="st8" d="M1283.51,181.51c-15.31,19.5-28.99,40.43-44.78,59.61-.18,3.18,2.29.61,2.85.46,8.65-2.29,16.11-7.32,24.78-9.53.42-.11.78-.55.95-.95.27-.13.75.14.95,0,2.26.04,3.3.64,2.86-1.91,1.6-.79,3.53-1.29,4.76-1.91,1.37,1.47,3.08.49,4.76,0-6.34,10.98-11.88,26.16-17.67,38.1-.76,1.57-1.54,2.97-1.39,4.8-.3.02-.66.04-.95,0-2.95-.45-3.63-3.82-5.75-6.17-3.77-4.18-15.3-15.38-17.12-19.58s-.62-10.98-.9-15.78c-.1-1.78.21-3.57-1.96-4.24,14.18-12.87,27.7-26.8,42.43-39.07,1.84-1.53,4.03-2.78,6.17-3.84Z"/>
      <path class="st4" d="M1414.06,188.18c-.32.01-.64-.01-.95,0l-48.6-14.3c23.92-11.47,48.08-22.36,73.38-30.51l-23.82,44.81Z"/>
      <path class="st1" d="M470.62,181.51c-34.28,2.31-68.7,3.88-102.92,6.68-.56,2.68,1.89,2.22,2.85,2.86,9.81,6.47,20.85,10.46,30.49,17.16-12.53-3.62-25.49-6.22-38.12-9.53-.37-.2-.64-.78-.95-.95.32-3.71,2.77-6.52,1.91-10.49l3.82-.43,31.44-16.73c19.92,1.83,48.78,4.94,67.86,9.81,1.07.27,3.25.4,3.61,1.63Z"/>
      <path class="st7" d="M604.04,217.74c23.83,10.1,48.82,24.18,71.82,36.41,1.34.71,3.01.38,2.51,2.69-24.29-2.48-54.22-10.37-78.14-16.21l2.86-22.88c.27.11.68-.11.95,0Z"/>
      <path class="st0" d="M606.9,216.79c27.23,4.05,57.66,15,84.81,20.02l-8.58,20.02c-1.26-.04-2.61.22-4.76,0,.51-2.31-1.17-1.98-2.51-2.69-23-12.23-47.99-26.31-71.82-36.41.21-1.15,1.98-1.08,2.86-.95Z"/>
      <path class="st1" d="M1323.53,214.88v.95l-60.99,54.35c-.3.05-.64-.02-.95,0-.16-1.83.63-3.24,1.39-4.8,5.79-11.94,11.33-27.13,17.67-38.1,1.27-2.21,2.01-2.78,4.33-3.78,9.85-4.24,27.66-6.57,38.55-8.62Z"/>
      <path class="st1" d="M1364.51,174.83c1.52,9.44,9.36,22.49,11.44,32.42-.53.15-1.33-.12-1.91,0-15.12,3.24-31.68,3.12-46.7,5.72l33.35-37.19c1.25-.63,2.38-1.04,3.81-.95Z"/>
      <path class="st1" d="M795.59,248.25c10.17,2.44,20.77,2.96,31.04,4.75,1.78.31,3.82-1.09,3.27,1.92-17.05,2.76-34.26,7.72-51.46,9.53-1.25.13-2.56-.09-3.81,0-.63.05-1.27-.03-1.91,0h-1.91c-.32,0-.64,0-.95,0-.24-.35-.56-.8-.95-.95-8.42-3.3-19.86-7-28.59-9.53l44.79-6.67c3.46.24,6.66.81,10.48.95Z"/>
      <path class="st9" d="M1101.49,301.65c2.07.51,8.05,4.43,11.45,5.26,1.82.44,2.94.45,4.75.46.31,0,.64.03.95,0-5.31,2.57-13.78,4.46-19.77,5.48-13.75,2.36-32.7,5.11-46.47,5.95-18.52,1.12-38.07-.81-56.69,0,29.7-3.38,63.68-9.93,93.39-15.26,2.94-.53,9.95-2.51,12.39-1.91Z"/>
      <path class="st5" d="M1374.04,207.25c-.05,2.56-2.69,3.44-4.48,4.58-18.04,11.45-37.88,23.06-56.51,33.56l2.92-11.68c3.1-4.35,6.77-12.57,7.57-17.88v-.95c1.14-.21,2.69-1.71,3.81-1.91,15.01-2.6,31.58-2.48,46.7-5.72Z"/>
      <path class="st5" d="M1413.11,188.18c-1.42,2.16-4.1,3.46-6.33,4.63-6.84,3.61-24.22,12.6-30.84,14.44-2.08-9.93-9.92-22.98-11.44-32.42-.05-.31.04-.64,0-.95l48.6,14.3Z"/>
      <path class="st9" d="M1237.76,244.44c1.82,4.2,13.35,15.4,17.12,19.58,2.11,2.34,2.8,5.72,5.75,6.17-.74,1.73-2.24,1.9-3.78,2.4-11.21,3.63-28.65,8.42-40.05,9.04l19.06-37.19c.63-.01,1.27,0,1.91,0Z"/>
      <path class="st9" d="M602.13,216.79c.36.14.66.83.95.95l-2.86,22.88c-12.6-3.08-25.47-6.13-38.12-9.53-5.04-1.36-10.23-2.86-15.26-4.32-1.58-.46-3.38.18-2.84-2.35,18.7-.54,39.12-7.14,58.13-7.63Z"/>
      <path class="st3" d="M1323.53,215.83c-.8,5.31-4.46,13.53-7.57,17.88l-2.92,11.68c-7.51,4.23-14.78,8.43-22.53,12.26-6.4,3.16-22.01,11.5-27.98,12.53l60.99-54.35Z"/>
      <path class="st1" d="M1235.86,244.44l-19.06,37.19c-.63.03-1.27-.02-1.91,0l-10.48-28.6c-.07-.86.69-1.37.95-1.91,2.2.66,4.54-1.65,5.72-1.91,5.99-1.29,19.46-4.66,24.78-4.77Z"/>
      <path class="st1" d="M694.57,236.81l40.98,16.21c-15.5.75-31.45,3.47-47.65,3.81-1.58.03-3.19.05-4.76,0l8.58-20.02c.87.16,1.98-.16,2.86,0Z"/>
      <path class="st5" d="M1204.41,253.02l10.48,28.6c-10.43.39-21-.13-31.45,0,5.67-9.32,13.08-17.96,18.11-27.65.33-.63.63-1.27.95-1.91l1.91.95Z"/>
      <path class="st3" d="M738.41,253.02c.16.03,1.11.72,1.91.95,8.73,2.54,20.17,6.23,28.59,9.53v.95c-26.33-.16-51.6-2.92-77.68-5.75-1.8-.2-3.85,1.16-3.32-1.88,16.19-.34,32.15-3.06,47.65-3.81.87-.04,2.08-.13,2.86,0Z"/>
      <path class="st3" d="M540.19,224.42c-3.79,7.37-14.46,9.18-20.01,15.26-10.71,1.08-18.19.5-28.59,0,3.26-1.96,4.61-6.38,6.67-9.53,5.13.03,12.44-.5,17.62-.96,7.17-.64,14.3-2.13,21.46-2.85v-2.85c-23.64-4.4-47.12-9.68-70.63-14.72-1.25-.27-2.31-1.39-2.76-1.49-.2-4.08,7.21-23.92,6.67-25.74.32.02.64-.02.95,0l68.61,42.91Z"/>
      <path class="st3" d="M903.27,302.6c6.11.54,10.05.82,16.2,1.91h1.91c.23.04.62.89.95.95,20.45,3.76,40.75,8.35,60.99,12.4-2.36-.1-4.77.2-7.14,0-12.33-1.07-27.67-4.98-39.56-4.76-.63.01-1.27,0-1.91,0l-52.41-11.44c7.44.01,13.18.27,20.97.95Z"/>
      <path class="st11" d="M810.41,280.26c22.83,1.71,59.13,12.23,82.58,17.85,2.52.6,10.4,1.52,10.28,4.49-7.79-.69-13.52-.94-20.97-.95-9.33-.02-62.7-16.58-71.9-21.38Z"/>
      <path class="st10" d="M363.89,187.23c.86,3.97-1.59,6.78-1.91,10.49-4.68-2.6-19.48-12.47-22.87-13.35-1.35-5.22-1.67-10.62-2.7-15.9-.25-1.26-.03-1.78,1.26-1.25l26.22,20.01Z"/>
      <path class="st0" d="M1089.1,303.56c-29.71,5.32-63.69,11.88-93.39,15.26-1.47.17-3.22-.02-4.76,0l-.95-8.58c1.58.06,3.18-.04,4.76,0,3.48.09,7,.01,10.48,0,5.05-.02,10.2.21,15.25,0,2.76-.11,6.31-.76,9.53-.95,3.57-.22,6.96-.65,10.48-.95h2.86c15.27-1.4,30.37-4.4,45.74-4.77Z"/>
      <path class="st3" d="M401.06,208.21c1.39.4,2.97,1.34,4.76,1.91,4.95,5.46,11.66,9.89,17.61,14.32.4.3,3.38,2.44,1.45,2.84-21.39-7.5-42.16-17.63-61.94-28.6,12.63,3.31,25.58,5.92,38.12,9.53Z"/>
      <path class="st1" d="M899.44,299.57c19.87.52,70.06,9.86,90.55,10.66l.95,8.58c-3.36.05-4.58-.35-7.62-.95-20.24-4.04-59.6-11.5-80.05-15.26"/>
      <path class="st3" d="M490.64,239.67c-21.86-1.19-38.16-4.08-59.08-10.49.71.08,1.62-.92,1.91-.95,4.13-.47,8.13.95,10.96.95h25.73c2.06,0,16.56,10.06,20.49,10.49Z"/>
      <path class="st3" d="M1183.44,281.63c-1.9.02-3.81-.02-5.72,0-4.44.04-8.9-.02-13.34,0l37.17-27.65c-5.03,9.69-12.43,18.33-18.11,27.65Z"/>
      <path class="st7" d="M498.26,230.14c-2.06,3.15-3.41,7.57-6.67,9.53-.32-.02-.64.02-.95,0-3.93-.43-18.43-10.49-20.49-10.49h-25.73c-2.83,0-6.83-1.43-10.96-.95-1.98.23-2.72-.08-.95-1.43.33-.25,7.21-3.25,7.62-3.34,5.27-1.15,27.91,5,35.75,5.71,6.37.58,15.9.92,22.38.96Z"/>
      <path class="st3" d="M1154.85,281.63l-.95,12.4c-.16.07-.85,1.35-2.29,1.96-6.32,2.68-27.21,10.9-32.97,11.39-.31.03-.64,0-.95,0l35.26-25.74c.32,0,.64,0,.95,0s.64,0,.95,0Z"/>
      <path class="st10" d="M543.05,224.42c.31.01.64,0,.95,0-.54,2.53,1.26,1.89,2.84,2.35,5.04,1.46,10.23,2.96,15.26,4.32-13.41,4.5-27.81,7.16-41.93,8.58,5.55-6.08,16.22-7.88,20.01-15.26.95.03,1.91-.04,2.86,0Z"/>
      <path class="st5" d="M440.13,223.46c-.41.09-7.29,3.09-7.62,3.34-1.78,1.35-1.03,1.65.95,1.43-.29.03-1.19,1.03-1.91.95-2.28-.7-4.02-.98-6.67-1.91,1.92-.4-1.05-2.54-1.45-2.84-5.94-4.43-12.65-8.86-17.61-14.32,9.72,3.06,20.34,7.17,30.52,10.94,1.46.54,3.17.59,3.78,2.41Z"/>
      <path class="st10" d="M1164.38,281.63c4.44-.02,8.91.04,13.34,0-5.42,3.57-11.22,7.14-17.13,10.03-2.49,1.22-4.89,1.57-6.69,2.37l.95-12.4c3.17,0,6.36.01,9.53,0Z"/>
      <path class="st10" d="M778.43,264.46c-.47,2.94.82,1.5,1.91,1.91,12.51,4.68,21.55,8.13,33.35,14.3-11.56-.86-25.61-8.46-36.59-13.5-1.41-.65-2.96-.51-2.49-2.71,1.26-.09,2.57.13,3.81,0Z"/>
      <path class="st9" d="M772.72,264.46c-1.06.06-1.39-.01-1.91,0h1.91Z"/>
      <path class="st9" d="M769.86,264.46c-.32,0-.64,0-.95,0v-.95c.39.15.71.6.95.95Z"/>
      <path class="st7" d="M298.14,165.3c-5.8,3.2-12.91,7.63-18.11,11.44-.7.51-.79,1.77-.95,1.91s-3.27,1.68-3.81,1.91c-9.61,4.09-16.83,6.2-25.73,12.4-1.25.87-3.26,1.28-4.76,2.86-4.9-1.88-11.26,2.54-16.2,3.81-.13-2.48,1.36-2.44,3.05-3.15,5.29-2.24,10.87-4.14,16.01-6.38,2.27-.99,3.74-1.91,5.72-2.86,3.22-1.54,15.1-5.11,16.09-8.29.53-1.71-.06-1.46-.84-2.19-1.49-1.4-2.09-.88-3.81-.95-.95-.04-1.91.03-2.86,0-17.07-3.39-34.52-4.96-51.85-6.75-.77-.08-1.33-.86-1.52-.88.99-1.58,3.61-.95,5.23-.97,21.92-.27,43.91-.2,65.81-.94,1.84-.06,3.82.97,3.29-1.91,4.7-.18,11.09-.67,15.25.95Z"/>
      <path class="st9" d="M191.41,167.21c1.58-.04,3.19-.05,4.76,0,4.29.13,8.16.53,12.39.95.19.02.75.8,1.52.88,17.32,1.79,34.77,3.36,51.85,6.75-35.39-1.11-72.22-2.71-107.69-2.86,11.89-2.54,25.07-5.38,37.17-5.72Z"/>
      <path class="st4" d="M309.57,179.6v.95c-.31-.04-.64.04-.95,0-9.52-1.27-19.1-2.36-28.59-3.81,5.2-3.82,12.31-8.24,18.11-11.44.6-.33,1.27-.61,1.91-.95,4.09-2.24,9.25-4.14,13.34-6.67.71,7.81-1.9,14.26-3.81,21.93Z"/>
      <path class="st7" d="M205.7,204.39v1.91c-.58-.08-1.3-.02-1.91,0-5.48.2-11.37,3.07-16.2,3.81-.9.14-1.96-.14-2.86,0-7.26,1.11-14.73,1.31-21.92,2.86-1.93.41-2.39-.75-3.81,1.91-5.71-2.51-14.65-.76-20.97,0-2.03.24-2.47-1.27-5.72.95-.99-1.58-3.62-.95-5.23-.97-5.91-.06-13.05-.72-18.6.97-1.52-.64-2.15-.79-3.81-.95-7.69-.74-16.84.19-24.78,0-5.33-.13-7.81-3.47-9.53,3.81-.31,0-.65-.04-.95,0-.61.08-1.51-.16-1.91,0-.22-.36-.83-.66-.95-.95-.65-1.48-.38-2.98-2.57-3.63l-15.54-.19c-.43-.17-1.31.14-1.9,0,.05-.6-.13-1.78,0-1.9.43-.38,9.63-.04,11.43,0,1.27.02,2.54-.03,3.81,0,12.19.32,25.29.94,38.12.95,4.75,0,9.54.05,14.29,0,32.5-.36,59.59-2.46,91.48-8.58Z"/>
      <path class="st5" d="M279.08,178.65l7.62,14.3c-9.46,4.72-18.38,9.4-28.59,13.35l17.15-25.74c.54-.23,3.65-1.77,3.81-1.91Z"/>
      <path class="st1" d="M275.27,180.56l-17.15,25.74c-.96.37-1.92.61-2.86.95l-5.72-14.3c8.9-6.2,16.12-8.31,25.73-12.4Z"/>
      <path class="st10" d="M308.62,180.56c.5,2.3-1.17,1.98-2.51,2.69-6.45,3.41-13.1,6.56-19.41,9.71l-7.62-14.3c.16-.14.25-1.39.95-1.91,9.49,1.45,19.07,2.55,28.59,3.81Z"/>
      <path class="st5" d="M249.54,192.95l5.72,14.3c-8.89,3.28-15.58,5.13-24.78,7.63v-.95c1.53-.81,2.67-2.06,3.78-3.37,3.58-4.22,7-11.07,10.51-14.75,1.5-1.58,3.51-1.99,4.76-2.86Z"/>
      <path class="st9" d="M205.7,206.3c6.37.88,16.12,7.93,22.87,9.53-9.08,2.35-17.38,4.23-26.68,5.72-.58-5.24,1.21-10.15,1.91-15.26.6-.02,1.33-.08,1.91,0Z"/>
      <path class="st4" d="M227.62,199.63c.81,3.72.16,10.54.92,13.7.22.9,1.26.69,1.94.61v.95c-.39.11-1.04.73-1.91.95-6.75-1.61-16.5-8.66-22.87-9.53v-1.91c1.88-.36,3.84-.57,5.72-.95l.95-.95c1.96-.41,4.31-.43,6.67-.95l.95-.95c2.17-.51,5.51-.41,7.62-.95Z"/>
      <path class="st9" d="M187.59,210.11l12.39,11.44c-9.06,1.39-12.35,2.43-21.92,1.91l6.67-13.35c.9-.14,1.96.14,2.86,0Z"/>
      <path class="st3" d="M138.04,214.88l13.34,10.49c-9.84-.03-18.81-.34-28.59-.95,3.19-2.08,6.63-6.59,9.53-8.58,3.24-2.23,3.69-.71,5.72-.95Z"/>
      <path class="st1" d="M244.77,195.81c-3.51,3.68-6.93,10.53-10.51,14.75-1.11,1.31-2.25,2.56-3.78,3.37-.68.08-1.73.29-1.94-.61-.76-3.15-.11-9.97-.92-13.7.3-.08.66.08.95,0,4.94-1.27,11.3-5.69,16.2-3.81Z"/>
      <path class="st1" d="M184.74,210.11l-6.67,13.35c-.87-.05-2.05-.12-2.86,0l-12.39-10.49c7.19-1.55,14.66-1.75,21.92-2.86Z"/>
      <path class="st9" d="M162.82,212.97l12.39,10.49c-8.14,1.2-12.37,1.73-20.97,1.91,2.1-3.05,3.14-7.45,4.76-10.49,1.42-2.65,1.88-1.49,3.81-1.91Z"/>
      <path class="st1" d="M159,214.88c-1.62,3.04-2.67,7.44-4.76,10.49-.89.02-1.89,0-2.86,0l-13.34-10.49c6.32-.76,15.25-2.51,20.97,0Z"/>
      <path class="st1" d="M203.79,206.3c-.7,5.1-2.48,10.01-1.91,15.26-.6.1-1.3-.09-1.91,0l-12.39-11.44c4.83-.75,10.72-3.61,16.2-3.81Z"/>
      <path class="st1" d="M132.32,215.83c-2.9,1.99-6.33,6.5-9.53,8.58-.63-.04-1.28.04-1.91,0-3.06-2.59-8.89-7.1-12.39-8.58,5.55-1.69,12.69-1.03,18.6-.97,1.61.02,4.24-.61,5.23.97Z"/>
      <path class="st3" d="M108.5,215.83c3.5,1.48,9.33,5.99,12.39,8.58-7.82-.54-15.41-2.06-22.87-2.86l6.67-6.67c1.66.16,2.29.31,3.81.95Z"/>
      <path class="st1" d="M104.69,214.88l-6.67,6.67c-.62-.07-1.28.07-1.91,0l-16.2-6.67c7.94.19,17.09-.74,24.78,0Z"/>
      <path class="st3" d="M79.91,214.88l16.2,6.67c-.11-.01-.65.97-2.09.81-7.49-.86-15.34-3.82-23.64-3.67,1.72-7.28,4.2-3.94,9.53-3.81Z"/>
      <path class="st9" d="M66.57,217.74c-6.45-.95-12.02-1.43-18.11-3.81l15.54.19c2.19.65,1.92,2.15,2.57,3.63Z"/>
      <path class="st9" d="M268.6,176.74l-3.81-.95c1.72.07,2.32-.45,3.81.95Z"/>
      <path class="st9" d="M149.48,173.88l.95-.95c-.21,0-.72.95-.95.95Z"/>
      <path class="st7" d="M211.42,203.44c.07-.01.17-.79.95-.95l-.95.95Z"/>
      <path class="st7" d="M219.04,201.53c.07-.01.24-.79.95-.95l-.95.95Z"/>
      <path class="st10" d="M258.11,138.6l56.21,17.2c-.02.64-.97,1.56-.94,1.87-4.09,2.53-9.25,4.44-13.34,6.67-.46-1.6-.77-2.21-2.17-3.15-12.49-8.4-27.98-12.98-39.76-22.59Z"/>
      <path class="st4" d="M282.89,164.35c.53,2.88-1.46,1.85-3.29,1.91-21.9.73-43.9.66-65.81.94-1.61.02-4.24-.61-5.23.97-4.23-.42-8.1-.82-12.39-.95v-1.91c16.8-.35,33.7.14,50.51,0,5.07-.04,10.18.08,15.25,0,7.07-.11,13.96-.69,20.97-.95Z"/>
      <path class="st7" d="M196.17,165.3v1.91c-1.58-.05-3.19-.04-4.76,0v-.95c.49-.01,2.6-.91,4.76-.95Z"/>
      <path class="st3" d="M1091.01,265.42c1.24.09,2.57.04,3.81,0,.32-.01.64,0,.95,0v.95l4.76,15.26c-37.98-1.21-89.85-17.41-126.54-29.28-3.34-1.08-6.69-2.28-9.73-4.09,2.02-.04,4.03-.1,6.06.12,39.42,4.31,81.65,14.17,120.69,17.04Z"/>
      <path class="st8" d="M1019.53,234.9c22.13,5.18,46.32,11.73,68.61,15.26l6.67,15.26c-1.24.04-2.57.09-3.81,0,.49-2.35-1.09-2.02-2.59-2.61-27.27-10.67-56.46-21.06-84.13-30.76,5.12.55,10.25,1.69,15.25,2.86Z"/>
      <path class="st10" d="M940.44,241.58c1.1-.05,2.85-.19,3.81,0,4.15.8,10.61,4.97,15.25,5.72-20.06,6.64-47.07,10.85-68.26,13.23-2.34.26-4.68.12-7.02.12,14.44-4.92,29.12-10.49,44.03-14.58l6.47-3.54c2.16-.11,4.09-.88,5.72-.95Z"/>
      <path class="st4" d="M944.25,241.58l51.46-10.48-33.35,16.2c-.85.15-2.17-.23-2.86,0-4.64-.76-11.1-4.92-15.25-5.72Z"/>
      <path class="st3" d="M1483.63,97.6c1.46-.24,3.3.24,4.76,0l70.52,17.16c-15.96-1.69-34.97-6.43-50.51-6.67-1.23-.02-2.62-.12-3.81,0-1.39-1.39-3.08-.89-4.76-.95-.63-.02-1.27.01-1.91,0-1.9-.03-3.81,0-5.72,0-.63,0-1.27.01-1.91,0-15.12-.32-30.05-1.13-45.28-.97-1.61.02-4.24-.61-5.23.97-1.27-.04-2.54.05-3.81,0-.55-3.02,1.49-1.61,3.27-1.93,10.28-1.85,20.78-4.02,31.04-5.7,4.41-.72,8.93-1.19,13.34-1.91Z"/>
      <path class="st8" d="M1497.92,120.49c-12.66-.69-27.75,4.01-40.49,2.85-11.94-1.09-26.99-7.09-38.6-7.62,3.96-1.84,9.73-.85,14.29-.95,1.9-.05,3.82.08,5.72,0,3.06-.13,5.66-.85,8.58-.95,15.2-.56,24.17.37,39.11,3.3,3.61.71,8.28,1.47,11.4,3.37Z"/>
      <path class="st2" d="M1498.88,120.49c3.53.44,16.35,7.04,19.74,9.28.53.35,3.08,2.9,3.13,3.12l-21.92-.95c-.64-3.71-1.51-7.38-.95-11.44Z"/>
      <path class="st9" d="M354.36,151c-6.01,5.09-11.66,10.69-18.11,15.26-5.26-1.36-9.6-4.67-14.3-7.15-1.74-.91-9.51-2.69-1.9-4.29,10.52-2.22,23.5-1.54,34.31-3.81Z"/>
      <path class="st3" d="M731.74,183.42c18.6,3.21,40.55,9.98,59.43,14.43,1.57.37,3.29.36,4.42,1.78-21.33-1.23-45.11-7.07-65.75-7.63l-1.91-8.58c1.23.1,2.68-.19,3.81,0Z"/>
      <path class="st10" d="M670.75,194.86c-.38.07-1.38,1.52-1.91,1.91-5.56.3-23.39,5.28-29.55,7.14-10.65,3.21-21.19,8.95-32.39,10.98.94-2.28,34.25-23.21,40.02-28.6.61-.57,1.62-.84,1.91-1.91.53.3,2.64-.03,3.5.74l18.42,9.75Z"/>
      <path class="st5" d="M675.51,181.51c11.59-.05,27.31-.12,38.62.93,1.68.16,3.28.32,4.27,1.93-11.76,2.43-23.45,6.04-35.26,8.58-4.43.95-8.42,1.17-12.39,1.91l-8.58-13.34c4.44-.03,8.9,0,13.34,0Z"/>
      <path class="st1" d="M602.13,148.14c1.53,4.1,3.98,7.99,4.76,12.4-5.97-2.59-13.14-4.46-19.33-6.92-1.49-.59-3.07-.26-2.58-2.61,5.11-.39,11.51-3.89,17.15-2.86Z"/>
      <path class="st11" d="M1381.66,107.14c-1.75.65-3.72,2.34-5.92,3.14-5.73,2.07-12.21,3.18-17.9,5.44-6,1.19-12.84,3.33-19.06,4.77-.66-1.51-3.08-.22-4.26,0-4.74.91-10.13,2.21-14.8,2.85l2.84-2.35,59.1-13.86Z"/>
      <path class="st1" d="M126.6,79.49c.82.41.58.86.29,1.55-2.15,5.15-7.33,9.88-8.86,15.61-.89.13-2.07-.19-2.86,0-5.47-3.26-11.59-6.07-16.2-10.49,9.11-2.45,18.14-5.82,27.64-6.67Z"/>
      <path class="st1" d="M579.26,150.04c-11.98-1.54-22.55-6.64-33.35-8.58l.95-11.44c3.64.42,7.67,3.06,10.77,4.95,7.36,4.5,14.73,9.88,21.63,15.07Z"/>
      <path class="st10" d="M727.93,183.42l1.91,8.58c-6.74-.18-16.33,1.7-23.31,1.95-7.77.27-15.62-.28-23.39-.04v-.95c11.81-2.54,23.5-6.16,35.26-8.58,1.87-.39,6.67-1.85,7.62-1.91,1.01-.06,1.76.94,1.91.95Z"/>
      <path class="st1" d="M83.72,78.53c3.35.37,9.61,5.3,12.39,7.63-7.27,2-14.46,5.18-21.92,6.67-.77-.2-1.98.13-2.86,0,1.08-2.15,8.53-13.32,9.76-14.09.73-.45,1.79-.3,2.63-.21Z"/>
      <path class="st11" d="M1316.86,123.35c-.09,0,.31.99-1.43,1s-1.34-1-1.43-1c.95-1.16,1.91-1.15,2.86,0Z"/>
      <path class="st8" d="M1521.75,132.88c.54,2.4-7.57,26.19-9.08,30.5-.32.92-.11,2.19-1.39,1.91-3.31-11.26-9.44-21.8-11.45-33.37l21.92.95Z"/>
      <path class="st0" d="M1415.97,117.63l-32.4,18.12c-1.27-.04-2.54.03-3.81,0l-22.87-2.86c11.13-4.5,23.66-8.38,35.26-11.44,1.23-.32,2.57-.64,3.81-.95,4.98-1.24,16.67-4.49,20.97-4.77-.32.64-.63,1.27-.95,1.91Z"/>
      <path class="st9" d="M1404.53,134.79c-.74.16-1.98.67-2.86.95-6.02-.13-12.09.19-18.11,0l32.4-18.12c-2.99,5.85-8.2,11.33-11.44,17.16Z"/>
      <path class="st3" d="M1287.32,198.67c-.15.89-.16,1.74-.88,2.41l-37.25,32.38-7.61,8.12c-.56.15-3.03,2.72-2.85-.46,15.78-19.18,29.47-40.1,44.78-59.61.2-.26.62-.55.95-.95l1.91-1.91c.31-.33.63-.64.95-.95-.73,6.42,1,14.87,0,20.98Z"/>
      <path class="st4" d="M1237.76,244.44c-.64,0-1.27-.01-1.91,0-5.32.11-18.79,3.48-24.78,4.77l.95-3.81c.59-.54,1.14-1.21,1.91-1.91,1.89.08,2.93-.93,2.86-2.86,1.7-1.49,3.52-2.69,4.76-3.81,1.82.31,2.23-.07,1.91-1.91,3.83-3.46,7.61-7.02,11.44-10.49,2.18.67,1.86,2.46,1.96,4.24.27,4.8-.99,11.43.9,15.78Z"/>
      <path class="st0" d="M1360.7,175.79l-33.35,37.19c-1.12.19-2.67,1.69-3.81,1.91-10.9,2.05-28.71,4.38-38.55,8.62-2.32,1-3.05,1.57-4.33,3.78-1.69.49-3.39,1.47-4.76,0,28.88-14.53,55.86-36.99,84.81-51.49Z"/>
      <path class="st0" d="M1271.12,229.18c.44,2.55-.6,1.95-2.86,1.91,1.1-.75.95-.97,2.86-1.91Z"/>
      <path class="st0" d="M1266.35,232.04c.14-.52.51-.74.95-.95-.17.4-.53.85-.95.95Z"/>
      <path class="st9" d="M470.62,181.51c.54,1.82-6.87,21.66-6.67,25.74-27.09-5.76-60.31-13.71-87.31-17.05-1.79-.22-4.83-.82-6.08.84-.96-.63-3.42-.18-2.85-2.86,34.22-2.8,68.63-4.37,102.92-6.68Z"/>
      <path class="st3" d="M646.92,186.28c-5.78,5.39-39.09,26.33-40.02,28.6-.17.42.12,1.33,0,1.91-.88-.13-2.65-.19-2.86.95-.27-.11-.68.11-.95,0-.29-.12-.6-.81-.95-.95-4.74-1.92-12.73-5.37-17.15-6.67l61.94-23.84Z"/>
      <path class="st9" d="M836.56,254.93v9.53c-16.87.73-33.89.76-51,.94-1.61.02-4.24-.61-5.23.97-1.09-.41-2.38,1.04-1.91-1.91,17.2-1.82,34.41-6.78,51.46-9.53,2.56-.41,5.58.18,6.67,0Z"/>
      <path class="st4" d="M869.92,248.25c-9.49,1.28-19.16,4.2-28.59,5.72-1.77.28-3.39.73-4.76.95-1.09.18-4.11-.41-6.67,0,.55-3.02-1.49-1.61-3.27-1.92-10.26-1.79-20.87-2.31-31.04-4.75,24.7.9,49.62-.67,74.33,0Z"/>
      <path class="st2" d="M785.1,247.3l-44.79,6.67c-.79-.23-1.74-.93-1.91-.95l3.81-9.53c.31.04.64-.04.95,0,13.81,1.64,28.05,2.86,41.93,3.81Z"/>
      <path class="st11" d="M1152.95,281.63l-35.26,25.74c-1.82,0-2.93-.02-4.75-.46-3.4-.83-9.38-4.75-11.45-5.26,11.94-6.51,26.02-9.04,38.6-14.29,2.13-.89,6.09-2.04,6.19-4.78,1.23,0,4.08-.96,6.67-.95Z"/>
      <path class="st4" d="M544.96,200.58c.76.22,2.09-.22,2.86,0l.95.95c.54.15,1.37-.15,1.91,0l.95.95c.77.22,2.09-.22,2.86,0,.51,1.76,2.12,2.06,3.81,1.91.78.21,2.07-.21,2.86,0l.95.95c.8.21,2.06-.21,2.86,0,2.66,2.46,10.8,4.96,14.34,5.37,2.12.25,2.67-.61,2.81-.6.88.05,2.2-.19,2.86,0,4.42,1.3,12.41,4.76,17.15,6.67-19.01.49-39.44,7.09-58.13,7.63-.31,0-.64.01-.95,0-.91-6.21-1.69-14.31-1-20.55.24-2.16.33-3.3,2.91-3.29Z"/>
      <path class="st8" d="M1212.03,245.39l-.95,3.81c-1.18.25-3.52,2.57-5.72,1.91,2.34-4.79,4.24-3.48,6.67-5.72Z"/>
      <path class="st4" d="M732.69,241.58c2.8.36,6.39,1.53,9.53,1.91l-3.81,9.53c-.78-.13-1.99-.04-2.86,0l-40.98-16.21c12.49,2.24,25.59,3.17,38.12,4.77Z"/>
      <path class="st7" d="M1202.5,252.07c-.32.64-.63,1.28-.95,1.91l-37.17,27.65c-3.17.01-6.36,0-9.53,0-.32,0-.64,0-.95,0l-4.76-24.79v-.95c17.81.09,35.62-2.83,53.37-3.81Z"/>
      <path class="st8" d="M544.96,200.58c-2.58-.02-2.67,1.13-2.91,3.29-.69,6.24.1,14.33,1,20.55-.95-.04-1.91.03-2.86,0l-68.61-42.91c21.09,1.56,53,13.08,73.38,19.07Z"/>
      <path class="st6" d="M1043.36,308.32h-2.86c1.47-.13,2.69.02,2.86,0Z"/>
      <path class="st1" d="M1149.14,256.83l4.76,24.79c-.32,0-.64,0-.95,0-2.59,0-5.44.96-6.67.95-2.22,0-4.45.01-6.67,0,.35-2.8-.36-1.58-1.91-1.91-14-2.98-27.76-11.31-41.93-14.3v-.95l53.37-8.58Z"/>
      <path class="st3" d="M934.72,242.53l-6.47,3.54c-14.91,4.08-29.6,9.66-44.03,14.58-3.02,1.03-4.24.54-6.67.95v-13.35c18.8-2.37,38.04-4.74,57.18-5.72Z"/>
      <path class="st10" d="M1137.7,280.67v.95c-12.35-.08-24.83.39-37.17,0l-4.76-15.26c14.17,3,27.93,11.33,41.93,14.3Z"/>
      <path class="st11" d="M869.62,260.52c-8.01-1.64-15.92-3.24-23.98-4.66-1.67-.29-3.32-.13-4.31-1.89,9.43-1.52,19.1-4.45,28.59-5.72,2.37-.32,5.24.3,7.62,0v13.35c-.31.05-.64-.04-.95,0"/>
      <path class="st3" d="M887.01,260.68c-11.96,1.12-38.43,3.26-50.44,3.78v-9.53c1.37-.22,3-.67,4.76-.95.99,1.76,2.64,1.59,4.31,1.89"/>
      <path class="st11" d="M1137.7,280.67c1.55.33,2.25-.89,1.91,1.91-.84,0-1.74-.95-1.91-.95v-.95Z"/>
      <path class="st3" d="M876.59,261.6"/>
      <path class="st3" d="M683.14,192.95v.95l-1.9.98c19.48,15.12,39.48,30.1,59.19,45.15,1.3.99,2.87,1.27,2.74,3.45-.31-.04-.64.04-.95,0-3.14-.37-6.73-1.55-9.53-1.91.43-2.48-.63-2.77-2.14-4.06-10.31-8.85-27.39-18.42-39.14-26.63-5.26-3.67-16.76-14.44-22.57-14.13.53-.38,1.53-1.84,1.91-1.91,3.97-.74,7.96-.95,12.39-1.91Z"/>
      <path class="st0" d="M1149.14,255.88v.95l-53.37,8.58c-.32,0-.64-.01-.95,0l-6.67-15.26c18.15,2.87,42.73,5.62,60.99,5.72Z"/>
      <path class="st8" d="M582.12,210.11c-.14,0-.69.85-2.81.6-3.54-.41-11.68-2.91-14.34-5.37,5.73,1.48,11.56,2.79,17.15,4.77Z"/>
      <path class="st8" d="M558.3,204.39c-1.69.16-3.3-.15-3.81-1.91,2.66.76,3.59,1.85,3.81,1.91Z"/>
      <path class="st8" d="M551.63,202.49l-.95-.95c.71.2.89.93.95.95Z"/>
      <path class="st8" d="M548.77,201.53l-.95-.95c.77.22.89.94.95.95Z"/>
      <path class="st8" d="M562.11,205.35l-.95-.95c.76.2.89.94.95.95Z"/>
      <path class="st11" d="M1347.35,156.72l-60.04,41.95c1-6.11-.73-14.56,0-20.98.32-.31.62-.65.95-.95,19.04-7.6,40.27-12.18,59.08-20.02Z"/>
      <path class="st2" d="M1324.48,150.04c-.54,3.07,1.55,1.61,3.33,1.87,6.61.99,16.15,3.44,22.4,2.9-.7,1.04-1.76,1.45-2.86,1.91-18.82,7.84-40.04,12.42-59.08,20.02,10.15-9.05,24.56-19.53,36.21-26.7Z"/>
      <path class="st4" d="M1354.98,133.83l-3.81,20.98c-.3.06-.64-.03-.95,0-6.25.55-15.8-1.91-22.4-2.9-1.78-.27-3.86,1.2-3.33-1.87,9.38-5.77,20.41-11.89,30.49-16.21Z"/>
      <path class="st1" d="M1356.88,132.88l22.87,2.86c.11,2.11-1.38,2.5-2.73,3.47-5.19,3.7-18.51,12.4-23.95,14.65-.61.25-1.37.86-1.91.95l3.81-20.98c.58-.25,1.16-.65,1.91-.95Z"/>
      <path class="st8" d="M1216.8,240.63c.07,1.93-.97,2.94-2.86,2.86.64-.58,1.4-1.58,2.86-2.86Z"/>
      <path class="st8" d="M1223.47,234.9c.32,1.84-.08,2.22-1.91,1.91.21-.19.97-1.06,1.91-1.91Z"/>
      <path class="st8" d="M1286.36,178.65l-1.91,1.91c1.36-1.67,1.45-1.42,1.91-1.91Z"/>
      <path class="st3" d="M1383.57,135.74c6.01.19,12.09-.13,18.11,0-12.93,4.21-27.16,11.99-40.46,16.25l-8.14,1.87c5.44-2.25,18.76-10.95,23.95-14.65,1.35-.96,2.84-1.36,2.73-3.47,1.27.03,2.54-.04,3.81,0Z"/>
    </g>
    <g>
      <path class="st1" d="M2403.3,229.18c-1.58.54-4.14,2.31-5.72,2.86-27.67,9.71-56.86,20.09-84.13,30.76-1.49.58-3.08.26-2.59,2.61,39.04-2.87,81.27-12.73,120.69-17.04,2.03-.22,4.03-.16,6.06-.12.48-.29,1.48-.18,1.91-.95l-33.35-16.2,51.46,10.48c.96-.19,2.71-.05,3.81,0v-.95c.81-1.94,2.68-2.73,4.27-3.84,23.24-16.13,49.45-29.75,72.92-45.74-.6-.12-.74-1.14-3.03-.81-6.81.99-18.38,4.96-25.56,7-34.46,9.77-73.19,20.41-106.72,31.95Z"/>
      <path class="st1" d="M1832.47,83.3c-.12,2.52.19,5.12,0,7.63l2.86,24.8c2.57-.12,5.06-.69,7.62-.96l70.52-17.16c-23.94-3.91-49.01-7.87-72.76-12.54-1.61-.32-3.29-.35-4.43-1.77h-3.81Z"/>
      <path class="st11" d="M3023.68,130.97l-12.39,15.26c7.74,2.2,20.63,7.58,28.85,10.7,3.16,1.2,16.64,6.08,18.2,7.35,1.09.88.5,1.8.6,2.93-14.14-.1-28.35,1.04-42.37,1.95-4.74.31-9.43.51-13.86.91l31.44,16.73,3.82.43,26.22-20.01c1.29-.53,1.51-.01,1.26,1.25-1.04,5.29-1.36,10.69-2.7,15.9,4.36-1.13,12.23-1.19,17.15-1.91.91-.13,1.95.13,2.86,0,2.74-.39,6.81-1.55,9.53-1.91v-.95c-9.18-3.17-18.83-7.79-26.68-13.35-6.45-4.56-12.1-10.17-18.11-15.26-.73-.62-2.24-.99-3.31-1.9-6.38-5.44-12.37-11.56-18.61-17.17-.4-.11-1.04-.72-1.91-.95Z"/>
      <path class="st9" d="M2542.43,189.14c-.66.21-2.32-.35-2.79.06-.37.32.11,1.5-.07,1.85l-14.29,29.56c24.59-7.21,49.62-13.23,74.33-20.02l-57.18-11.44Z"/>
      <path class="st0" d="M2542.43,189.14l57.18,11.44c.37-.26.66-.61.95-.95,5.7-6.65,11.37-17.25,16.2-24.79-16.12.37-58.41,9.21-74.33,14.3Z"/>
      <path class="st3" d="M2461.43,240.63c21.44-6.03,42.5-13.76,63.85-20.02l14.29-29.56s-.78.03-.95,0c-23.47,15.99-49.68,29.61-72.92,45.74-1.59,1.1-3.46,1.89-4.27,3.84Z"/>
      <path class="st3" d="M1836.28,137.65c-.58.64-1.3.62-.76,2.04l5.56,32.27c6.95-1.06,13.92-2.17,20.93-2.84,1.25-.12,2.56.12,3.81,0,6.79-.66,16.9-2.69,22.87-2.86l-52.41-28.6Z"/>
      <path class="st1" d="M2616.76,174.83c-4.83,7.54-10.5,18.14-16.2,24.79,1.9-.08,3.82.11,5.72,0,1.12-1.42,2.84-1.41,4.42-1.78,18.88-4.45,40.83-11.23,59.43-14.43-.99-1.77-2.65-1.58-4.32-1.88-13.73-2.47-32.51-5.4-46.19-6.7-.92-.09-1.93-.02-2.86,0Z"/>
      <path class="st7" d="M2723.5,178.65c1.37,1.15,3.48.57,2.86,2.86,4.44.02,8.9-.02,13.34,0l-8.58,13.34,18.42-9.75c.87-.77,2.98-.44,3.5-.74,13.96-7.96,26.57-17.18,41.93-23.84.79-4.41,3.23-8.29,4.76-12.4.17-.45-.11-1.32,0-1.91-20.13,7.91-39.6,23.09-58.83,33.14-5.96.03-11.76-.8-17.4-.72Z"/>
      <path class="st9" d="M3232.38,85.21c-.32,0-.64-.01-.95,0l-5.72,22.88c14.29,0,38.22-6.02,53.37-8.58,1.89-.32,3.71-1.22,5.72-.95-.26-.12-.57-.82-.95-.95-16.04-5.43-35.16-7.07-51.46-12.4Z"/>
      <path class="st1" d="M3210.46,166.25v.95c12.09.34,25.28,3.18,37.17,5.72,1.27,0,2.54,0,3.81,0l.95.95c28.36-.04,56.57.47,84.81.95,1.9.03,3.81-.04,5.72,0,3.8.07,7.63-.06,11.44,0,6.65.11,13.36-.17,20.01,0,.53-2.88-1.46-1.85-3.29-1.91-53.66-1.81-106.95-5.56-160.62-6.67Z"/>
      <path class="st1" d="M3141.85,121.44c-4.43-.22-8.14,2.8-11.73,4.94-11.09,6.62-22.27,14.1-32.97,21.36-2.87,1.94-9.07,8.3-11.75,7.81-.59-.11-2.45-1.25-3.58-1.7v.95c7.61,1.6-.17,3.38-1.9,4.29-4.7,2.47-9.04,5.78-14.3,7.15,7.85,5.56,17.51,10.17,26.68,13.35-1.91-7.67-4.52-14.12-3.81-21.93.03-.3-.92-1.23-.94-1.87l56.21-17.2c.29-.09.66.09.95,0,2.08-5.72-2.56-11.29-2.86-17.16Z"/>
      <path class="st7" d="M1931.58,99.51c10.26,1.68,20.76,3.84,31.04,5.7,1.77.32,3.81-1.09,3.27,1.93.63-.03,1.27,0,1.91,0,15.15-.22,38.03,2.65,53.37,4.77,1.12.15,2.15.85,2.86.95.91.13,1.95-.13,2.86,0,1.05.15,1.77.93,1.91.95.93.14,1.68.92,1.91.95,3.8.64,9.13.11,13.34.95-5.69-2.26-12.17-3.37-17.9-5.44-2.2-.8-4.17-2.48-5.92-3.14-4.59-1.71-9.26-2.5-13.34-4.77-.62-.07-1.28.06-1.91,0-2.31-.22-5.09-.83-6.67-.95-20.3-1.62-41.4-.68-61.59-2.75-1.56-.16-4.13-.78-5.12.85Z"/>
      <path class="st4" d="M3184.73,100.46c12.21.88,26.78,7.06,40.02,7.63.32.01.64,0,.95,0l5.72-22.88c-4.72.16-17.3,4.77-22.65,6.42-7.95,2.45-16.72,5.11-24.05,8.84Z"/>
      <path class="st1" d="M2974.13,121.44l33.35,23.84c1.19.29,2.66.63,3.81.95l12.39-15.26c-16.24-4.46-33.12-8.14-49.55-9.53Z"/>
      <path class="st11" d="M3182.82,100.46l-2.86,22.88c9.05-.61,32.02-9.52,41.97-12.88,1.54-.52,3.37.17,2.82-2.37-13.25-.57-27.81-6.75-40.02-7.63-.63-.05-1.27.03-1.91,0Z"/>
      <path class="st4" d="M2855.96,129.07c5.54-.11,11.06.51,16.56,1.08,10.02,1.03,20.2,3.07,30.14,4.65,1.97-.3,6.9-.87,8.58-.95l5.72-15.26c-14.34.32-40.91,4.94-55.45,7.92-1.93.4-4.67.39-5.54,2.57Z"/>
      <path class="st4" d="M1911.57,88.07l6.67,9.53c4.41.72,8.93,1.19,13.34,1.91.98-1.63,3.55-1.01,5.12-.85,20.19,2.08,41.3,1.13,61.59,2.75v-.95c-28.57-4.84-58.2-9.49-86.72-12.4Z"/>
      <path class="st4" d="M3182.82,100.46l-40.41,18.03c-.98.4-.5,1.27-.57,2,12.13-.57,25.29,2.86,37.17,2.86.32,0,.64.02.95,0l2.86-22.88Z"/>
      <path class="st1" d="M2969.36,120.49l-53.37,13.35c16.55,3.05,32.11,1.78,48.6,3.81l6.67-16.21c-.21-.02-1.02-.9-1.91-.95Z"/>
      <path class="st4" d="M3232.38,85.21c16.3,5.32,35.42,6.97,51.46,12.4v-.95c-1.53-5.74-6.71-10.46-8.86-15.61-.29-.69-.53-1.14.29-1.55v-.95c-14.31.99-28.84,3.88-42.88,6.67Z"/>
      <path class="st2" d="M2916.95,118.58l-5.72,15.26c1.35-.07,3.57-.22,4.76,0l53.37-13.35c-4.5-.29-7.76-.32-12.39-.95-2.24,2.5-6.15.14-8.58,0-9.42-.55-22.16-1.16-31.45-.95Z"/>
      <path class="st3" d="M2328.97,213.93c2.57,2.59,7.89,3.99,11.47,5.21,12.47,4.23,26.88,7.56,38.85,12.62,1.69.71,3.17.67,3.05,3.15,5-1.17,10.13-2.31,15.25-2.86,1.58-.55,4.14-2.32,5.72-2.86-15.32-1.97-29.59-8.96-44.79-11.44-9.76-1.59-19.76-1.99-29.54-3.81Z"/>
      <path class="st2" d="M1840.1,83.3c-1.27-.03-2.54,0-3.81,0,1.14,1.41,2.82,1.45,4.43,1.77,23.75,4.66,48.82,8.62,72.76,12.54,1.46.24,3.3-.24,4.76,0l-6.67-9.53c-3.17-.32-9.15-1.91-11.91-1.91h-15.25c-4.08,0-11.03-.7-15.72-.95-7.22-.39-15.01-1.56-21.92-1.91-2.21-.11-4.46.06-6.67,0Z"/>
      <path class="st1" d="M2170.77,149.09c3.31,3.23,26.38,12.51,32.4,15.26,13.75,6.27,27.72,11.85,41.93,17.64,18.19,7.42,36.52,15.27,55.27,21.45-22.41-10.57-45.98-21.27-68.61-31.47-17.37-7.83-35.9-15.54-54.1-21.67-2.2-.74-4.55-1.23-6.89-1.22Z"/>
      <path class="st4" d="M2971.27,121.44l-6.67,16.21c12.04,1.48,31.2,4.77,42.88,7.63l-33.35-23.84c-.94-.08-1.92.08-2.86,0Z"/>
      <path class="st7" d="M2231.76,171.97c22.63,10.2,46.2,20.9,68.61,31.47,8.39,3.96,14.57,7.48,23.82,9.53-2.44-2.24-3.87-6.33-5.72-8.58-.67-.81-1.17-1.77-2.31-2.04-26.8-8.72-52.79-19.86-79.29-29.31-1.72-.61-3.16-1.44-5.12-1.07Z"/>
      <path class="st4" d="M3025.59,131.93c6.24,5.61,12.23,11.73,18.61,17.17,1.07.91,2.58,1.29,3.31,1.9,10.81,2.28,23.79,1.6,34.31,3.81v-.95c-20.13-7.92-34.62-15.74-56.23-21.93Z"/>
      <path class="st7" d="M2855.96,129.07c-.32,0-.64-.02-.95,0v.95s.95,11.44.95,11.44c14.36-2.58,32.04-4.46,46.7-6.67-9.94-1.58-20.12-3.62-30.14-4.65-5.5-.56-11.01-1.18-16.56-1.08Z"/>
      <path class="st11" d="M3141.85,120.49c-.03.3-.02.65,0,.95.29,5.87,4.94,11.45,2.86,17.16,11.71-3.76,23.71-9.07,34.31-15.26-11.88,0-25.04-3.43-37.17-2.86Z"/>
      <path class="st7" d="M3358.17,83.3c-.24,1.63.35,9.21,0,9.53-.18.16-4.26.9-4.76.96l48.6,2.86c2.96-2.57-11.6-4.71-12.6-5.02-7.57-2.34-19.99-8.09-27.22-9.1-2.28-.32-2.68.54-4.01.78Z"/>
      <path class="st8" d="M2799.73,146.23c-.11.59.17,1.46,0,1.91,5.65-1.03,12.04,2.47,17.15,2.86,2.73.21,3.85-.71,5.72-.95,6.9-5.19,14.27-10.57,21.63-15.07,3.1-1.9,7.13-4.54,10.77-4.95v-.95c-11.47.68-43.21,12.42-55.27,17.16Z"/>
      <path class="st0" d="M2619.62,174.83c13.68,1.3,32.46,4.23,46.19,6.7,1.67.3,3.33.11,4.32,1.88,1.13-.19,2.58.1,3.81,0,.15-.01.9-1.02,1.91-.95l3.81-9.53c-11.33-.6-22.66.49-33.84.94-8.73.35-17.49.09-26.2.96Z"/>
      <path class="st1" d="M2679.66,172.93l-3.81,9.53c.96.06,5.75,1.52,7.62,1.91.99-1.61,2.58-1.77,4.27-1.93,11.3-1.05,27.02-.98,38.62-.93.62-2.29-1.49-1.71-2.86-2.86-.95.01-1.91-.02-2.86,0-1.04.02-2.41.25-2.86-.95-1.24.09-2.57.03-3.81,0-1.04-.03-2.4.28-2.86-.95-1.24.09-2.57.03-3.81,0-1.04-.03-2.4.28-2.86-.95-.8.1-4.58.15-4.76,0l-1.91-.95c-1.74.13-3.98.13-5.72,0-1.55-.12-2.63-.93-2.86-.95-3.25-.3-6.21-.78-9.53-.95Z"/>
      <path class="st4" d="M3318.15,77.58v.95c.84-.09,1.9-.24,2.63.21,1.23.77,8.69,11.94,9.76,14.09.08.16.95.34.95.95.61-.08,1.28.03,1.91,0,.4-.88,1.32-.69,1.91-.95,6.83-3.04,14.75-7.63,21.92-9.53.53-3.07-1.55-1.64-3.34-1.86-11.88-1.46-24.12-3.73-35.74-3.86Z"/>
      <path class="st5" d="M2133.61,138.6c-.45,2.39,5.6,3.81,7.46,4.45,18.1,6.2,35.64,13.47,53.56,19.83,2.17.77,6.33,2.22,8.54,1.47-6.02-2.75-29.09-12.03-32.4-15.26-.15-.14.55-1.27-.63-1.93-2.81-1.57-21.78-7.36-25.1-7.61-3.54-.26-7.04-.08-11.44-.95Z"/>
      <path class="st3" d="M2063.09,120.49c23.24,5.37,66.73,18.36,74.17,21.32,0,0,4.25-2.51,7.79-2.25-9.27-2.99-20.01-7.89-29.3-10.26-3.47-.88-8.84-4.23-12.68-4.94-3.38-.63-6.75,1.67-10.14,1.03-1.77-.33-3.71.81-3.15-2.04-.5.13-1.29-.05-1.91,0-.09,0,.29,1.02-1.43,1s-1.34-1-1.43-1c-.93-.08-1.95.12-2.86,0-4.66-.64-10.05-1.94-14.8-2.85-1.18-.23-3.6-1.51-4.26,0Z"/>
      <path class="st5" d="M3302.9,86.16c-4.61,4.42-10.73,7.23-16.2,10.49,4.46,1.09,5.98-.06,10.48,0,1.58.02,3.2-.11,4.76,0,1.03-1.58,3.93-.96,5.72-.95,1.58,0,3.2-.11,4.76,0,1.04-1.6,3.92-.92,5.72-.95,2.22-.04,4.45-.03,6.67,0,.81-.47,2.1-1.71,2.86-1.91-7.46-1.49-14.64-4.67-21.92-6.67-.78-.21-2.07.21-2.86,0Z"/>
      <path class="st5" d="M2318.48,204.39c1.85,2.25,3.28,6.34,5.72,8.58,1.68.37,3.07.64,4.76.95,9.78,1.82,19.78,2.22,29.54,3.81.48-2.41-1.09-2.03-2.63-2.56-10.09-3.5-21.64-6.87-31.96-10.03-1.85-.57-3.45-1.08-5.43-.75Z"/>
      <path class="st1" d="M2006.86,102.37c4.08,2.27,8.75,3.06,13.34,4.77l59.1,13.86,2.84,2.35c.9.12,1.93-.08,2.86,0,.95-1.15,1.91-1.16,2.86,0,.62-.05,1.41.13,1.91,0,.74-.19,1.62.08,1.91-.95-26.86-6.95-57.38-17-84.81-20.02Z"/>
      <path class="st8" d="M3315.29,77.58c-.32,0-.64,0-.95,0-6.1.09-12.02.8-18.11.95h-2.86c-4.11.16-8.28-.13-12.39,0h-1.91c-1.26.07-2.55-.09-3.81,0v.95c9.5.85,18.52,4.22,27.64,6.67.79.21,2.08-.21,2.86,0,2.78-2.33,9.04-7.25,12.39-7.63v-.95c-.95-.01-1.91-.02-2.86,0Z"/>
      <path class="st9" d="M3335.3,92.83v.95c5.82-.36,12.48.63,18.11,0,.5-.06,4.58-.8,4.76-.96.36-.32-.24-7.9,0-9.53-.32.06-.67-.07-.95,0-7.17,1.9-15.09,6.5-21.92,9.53Z"/>
      <path class="st11" d="M2091.68,122.39c-.29,1.04-1.17.76-1.91.95-.56,2.85,1.38,1.71,3.15,2.04,3.39.64,6.81,1.14,10.19,1.77-.1-.73.28-2.5-.05-2.8-.43-.39-9.69-1.53-11.39-1.97Z"/>
      <path class="st7" d="M3286.7,96.65c-.79-.19-1.97.13-2.86,0v.95c.39.13.69.84.95.95.55.25.63,1.01,2.32,1.05,1.04.02,9.66-.75,10.07-1.05.17-.12-.11-1.5,0-1.91-4.5-.06-6.02,1.09-10.48,0Z"/>
      <path class="st4" d="M2948.4,119.53c2.43.14,6.34,2.5,8.58,0-2.11-.29-6.17-2.61-8.58,0Z"/>
      <path class="st7" d="M3327.68,92.83c-.76.2-2.05,1.44-2.86,1.91,4.51.05,3.88-.59,6.67-.95,0-.62-.87-.8-.95-.95-.88.13-2.09-.2-2.86,0Z"/>
      <path class="st1" d="M1998.29,100.46v.95c1.58.13,4.36.73,6.67.95-1.57-2.58-4.47-1.54-6.67-1.91Z"/>
      <path class="st7" d="M3312.43,95.69c1.67.11,6.37,3.2,5.72-.95-1.8.03-4.68-.65-5.72.95Z"/>
      <path class="st7" d="M3301.95,96.65c1.67.11,6.37,3.2,5.72-.95-1.79,0-4.69-.63-5.72.95Z"/>
      <path class="st7" d="M2704.44,175.79c.46,1.23,1.81.93,2.86.95.44-3.83-1.84-1.08-2.86-.95Z"/>
      <path class="st7" d="M2711.11,176.74c.46,1.23,1.81.93,2.86.95.48-3.88-2.03-1.02-2.86-.95Z"/>
      <path class="st7" d="M2689.19,173.88c.23.02,1.3.84,2.86.95.31-2.26-.14-2.1-2.38-1.9l-.48.94Z"/>
      <path class="st7" d="M2717.78,177.69c.45,1.2,1.82.97,2.86.95.48-3.88-2.03-1.02-2.86-.95Z"/>
      <path class="st7" d="M3333.39,93.79c.4-.02.9.06,1.91,0v-.95c-.59.26-1.5.07-1.91.95Z"/>
      <path class="st7" d="M2697.77,174.83l1.91.95c-.15-.12.1-1.35,0-1.9-1-.38-1.79.94-1.9.95Z"/>
      <path class="st4" d="M3293.37,78.53h2.86c-.75.02-1.61-.05-2.86,0Z"/>
      <path class="st4" d="M3279.07,78.53h1.91c-.48.02-.89-.06-1.91,0Z"/>
      <path class="st4" d="M3314.33,77.58c.32,0,.64,0,.95,0l-.48-.93-.48.93Z"/>
      <path class="st1" d="M1983.04,115.72c-11.62.53-26.66,6.53-38.6,7.62-12.74,1.16-27.84-3.54-40.49-2.85-.32.02-.64-.04-.95,0,.56,4.07-.31,7.73-.95,11.44-2,11.56-8.14,22.1-11.45,33.37-1.28.28-1.07-.99-1.39-1.91-1.51-4.31-9.62-28.11-9.08-30.5-13.05.57-27.41.49-40.29,3.08-1.4.28-2.54.58-3.54,1.68l52.41,28.6c.63-.02,1.27-.02,1.91,0l72.43-22.88c-16.12-4.75-33.53-5.7-49.73-9.87-1.69-.44-4.28.12-3.63-2.52,10.34-.11,20.68-2.43,30.98-2.86,15.06-.62,41.67,3.4,56.69,6.66-3.24-5.83-8.45-11.31-11.44-17.16-.32-.63-.64-1.27-.95-1.91-.62-.04-1.28-.03-1.91,0Z"/>
      <path class="st5" d="M1890.6,166.25c15.41.43,43.03,6.92,58.3,10.8,9.22,2.34,31.76,10.8,38.9,11.14l-23.82-44.81h-.95s-72.43,22.88-72.43,22.88Z"/>
      <path class="st8" d="M2118.36,181.51c15.31,19.5,28.99,40.43,44.78,59.61.18,3.18-2.29.61-2.85.46-8.65-2.29-16.11-7.32-24.78-9.53-.42-.11-.78-.55-.95-.95-.27-.13-.75.14-.95,0-2.26.04-3.3.64-2.86-1.91-1.6-.79-3.53-1.29-4.76-1.91-1.37,1.47-3.08.49-4.76,0,6.34,10.98,11.88,26.16,17.67,38.1.76,1.57,1.54,2.97,1.39,4.8.3.02.66.04.95,0,2.95-.45,3.63-3.82,5.75-6.17,3.77-4.18,15.3-15.38,17.12-19.58,1.89-4.35.62-10.98.9-15.78.1-1.78-.21-3.57,1.96-4.24-14.18-12.87-27.7-26.8-42.43-39.07-1.84-1.53-4.03-2.78-6.17-3.84Z"/>
      <path class="st4" d="M1987.81,188.18c.32.01.64-.01.95,0l48.6-14.3c-23.92-11.47-48.08-22.36-73.38-30.51l23.82,44.81Z"/>
      <path class="st1" d="M2931.24,181.51c34.28,2.31,68.7,3.88,102.92,6.68.56,2.68-1.89,2.22-2.85,2.86-9.81,6.47-20.85,10.46-30.49,17.16,12.53-3.62,25.49-6.22,38.12-9.53.37-.2.64-.78.95-.95-.32-3.71-2.77-6.52-1.91-10.49l-3.82-.43-31.44-16.73c-19.92,1.83-48.78,4.94-67.86,9.81-1.07.27-3.25.4-3.61,1.63Z"/>
      <path class="st7" d="M2797.83,217.74c-23.83,10.1-48.82,24.18-71.82,36.41-1.34.71-3.01.38-2.51,2.69,24.29-2.48,54.22-10.37,78.14-16.21l-2.86-22.88c-.27.11-.68-.11-.95,0Z"/>
      <path class="st0" d="M2794.97,216.79c-27.23,4.05-57.66,15-84.81,20.02l8.58,20.02c1.26-.04,2.61.22,4.76,0-.51-2.31,1.17-1.98,2.51-2.69,23-12.23,47.99-26.31,71.82-36.41-.21-1.15-1.98-1.08-2.86-.95Z"/>
      <path class="st1" d="M2078.34,214.88v.95s60.99,54.35,60.99,54.35c.3.05.64-.02.95,0,.16-1.83-.63-3.24-1.39-4.8-5.79-11.94-11.33-27.13-17.67-38.1-1.27-2.21-2.01-2.78-4.33-3.78-9.85-4.24-27.66-6.57-38.55-8.62Z"/>
      <path class="st1" d="M2037.36,174.83c-1.52,9.44-9.36,22.49-11.44,32.42.53.15,1.33-.12,1.91,0,15.12,3.24,31.68,3.12,46.7,5.72l-33.35-37.19c-1.25-.63-2.38-1.04-3.81-.95Z"/>
      <path class="st1" d="M2606.28,248.25c-10.17,2.44-20.77,2.96-31.04,4.75-1.78.31-3.82-1.09-3.27,1.92,17.05,2.76,34.26,7.72,51.46,9.53,1.25.13,2.56-.09,3.81,0,.63.05,1.27-.03,1.91,0h1.91c.32,0,.64,0,.95,0,.24-.35.56-.8.95-.95,8.42-3.3,19.86-7,28.59-9.53l-44.79-6.67c-3.46.24-6.66.81-10.48.95Z"/>
      <path class="st9" d="M2300.38,301.65c-2.07.51-8.05,4.43-11.45,5.26-1.82.44-2.94.45-4.75.46-.31,0-.64.03-.95,0,5.31,2.57,13.78,4.46,19.77,5.48,13.75,2.36,32.7,5.11,46.47,5.95,18.52,1.12,38.07-.81,56.69,0-29.7-3.38-63.68-9.93-93.39-15.26-2.94-.53-9.95-2.51-12.39-1.91Z"/>
      <path class="st5" d="M2027.83,207.25c.05,2.56,2.69,3.44,4.48,4.58,18.04,11.45,37.88,23.06,56.51,33.56l-2.92-11.68c-3.1-4.35-6.77-12.57-7.57-17.88v-.95c-1.14-.21-2.69-1.71-3.81-1.91-15.01-2.6-31.58-2.48-46.7-5.72Z"/>
      <path class="st5" d="M1988.76,188.18c1.42,2.16,4.1,3.46,6.33,4.63,6.84,3.61,24.22,12.6,30.84,14.44,2.08-9.93,9.92-22.98,11.44-32.42.05-.31-.04-.64,0-.95l-48.6,14.3Z"/>
      <path class="st9" d="M2164.1,244.44c-1.82,4.2-13.35,15.4-17.12,19.58-2.11,2.34-2.8,5.72-5.75,6.17.74,1.73,2.24,1.9,3.78,2.4,11.21,3.63,28.65,8.42,40.05,9.04l-19.06-37.19c-.63-.01-1.27,0-1.91,0Z"/>
      <path class="st9" d="M2799.73,216.79c-.36.14-.66.83-.95.95l2.86,22.88c12.6-3.08,25.47-6.13,38.12-9.53,5.04-1.36,10.23-2.86,15.26-4.32,1.58-.46,3.38.18,2.84-2.35-18.7-.54-39.12-7.14-58.13-7.63Z"/>
      <path class="st3" d="M2078.34,215.83c.8,5.31,4.46,13.53,7.57,17.88l2.92,11.68c7.51,4.23,14.78,8.43,22.53,12.26,6.4,3.16,22.01,11.5,27.98,12.53l-60.99-54.35Z"/>
      <path class="st1" d="M2166.01,244.44l19.06,37.19c.63.03,1.27-.02,1.91,0l10.48-28.6c.07-.86-.69-1.37-.95-1.91-2.2.66-4.54-1.65-5.72-1.91-5.99-1.29-19.46-4.66-24.78-4.77Z"/>
      <path class="st1" d="M2707.29,236.81l-40.98,16.21c15.5.75,31.45,3.47,47.65,3.81,1.58.03,3.19.05,4.76,0l-8.58-20.02c-.87.16-1.98-.16-2.86,0Z"/>
      <path class="st5" d="M2197.46,253.02l-10.48,28.6c10.43.39,21-.13,31.45,0-5.67-9.32-13.08-17.96-18.11-27.65-.33-.63-.63-1.27-.95-1.91l-1.91.95Z"/>
      <path class="st3" d="M2663.46,253.02c-.16.03-1.11.72-1.91.95-8.73,2.54-20.17,6.23-28.59,9.53v.95c26.33-.16,51.6-2.92,77.68-5.75,1.8-.2,3.85,1.16,3.32-1.88-16.19-.34-32.15-3.06-47.65-3.81-.87-.04-2.08-.13-2.86,0Z"/>
      <path class="st3" d="M2861.68,224.42c3.79,7.37,14.46,9.18,20.01,15.26,10.71,1.08,18.19.5,28.59,0-3.26-1.96-4.61-6.38-6.67-9.53-5.13.03-12.44-.5-17.62-.96-7.17-.64-14.3-2.13-21.46-2.85v-2.85c23.64-4.4,47.12-9.68,70.63-14.72,1.25-.27,2.31-1.39,2.76-1.49.2-4.08-7.21-23.92-6.67-25.74-.32.02-.64-.02-.95,0l-68.61,42.91Z"/>
      <path class="st3" d="M2498.6,302.6c-6.11.54-10.05.82-16.2,1.91h-1.91c-.23.04-.62.89-.95.95-20.45,3.76-40.75,8.35-60.99,12.4,2.36-.1,4.77.2,7.14,0,12.33-1.07,27.67-4.98,39.56-4.76.63.01,1.27,0,1.91,0l52.41-11.44c-7.44.01-13.18.27-20.97.95Z"/>
      <path class="st11" d="M2591.46,280.26c-22.83,1.71-59.13,12.23-82.58,17.85-2.52.6-10.4,1.52-10.28,4.49,7.79-.69,13.52-.94,20.97-.95,9.33-.02,62.7-16.58,71.9-21.38Z"/>
      <path class="st10" d="M3037.97,187.23c-.86,3.97,1.59,6.78,1.91,10.49,4.68-2.6,19.48-12.47,22.87-13.35,1.35-5.22,1.67-10.62,2.7-15.9.25-1.26.03-1.78-1.26-1.25l-26.22,20.01Z"/>
      <path class="st0" d="M2312.77,303.56c29.71,5.32,63.69,11.88,93.39,15.26,1.47.17,3.22-.02,4.76,0l.95-8.58c-1.58.06-3.18-.04-4.76,0-3.48.09-7,.01-10.48,0-5.05-.02-10.2.21-15.25,0-2.76-.11-6.31-.76-9.53-.95-3.57-.22-6.96-.65-10.48-.95h-2.86c-15.27-1.4-30.37-4.4-45.74-4.77Z"/>
      <path class="st3" d="M3000.81,208.21c-1.39.4-2.97,1.34-4.76,1.91-4.95,5.46-11.66,9.89-17.61,14.32-.4.3-3.38,2.44-1.45,2.84,21.39-7.5,42.16-17.63,61.94-28.6-12.63,3.31-25.58,5.92-38.12,9.53Z"/>
      <path class="st1" d="M2502.43,299.57c-19.87.52-70.06,9.86-90.55,10.66l-.95,8.58c3.36.05,4.58-.35,7.62-.95,20.24-4.04,59.6-11.5,80.05-15.26"/>
      <path class="st3" d="M2911.23,239.67c21.86-1.19,38.16-4.08,59.08-10.49-.71.08-1.62-.92-1.91-.95-4.13-.47-8.13.95-10.96.95h-25.73c-2.06,0-16.56,10.06-20.49,10.49Z"/>
      <path class="st3" d="M2218.42,281.63c1.9.02,3.81-.02,5.72,0,4.44.04,8.9-.02,13.34,0l-37.17-27.65c5.03,9.69,12.43,18.33,18.11,27.65Z"/>
      <path class="st7" d="M2903.61,230.14c2.06,3.15,3.41,7.57,6.67,9.53.32-.02.64.02.95,0,3.93-.43,18.43-10.49,20.49-10.49h25.73c2.83,0,6.83-1.43,10.96-.95,1.98.23,2.72-.08.95-1.43-.33-.25-7.21-3.25-7.62-3.34-5.27-1.15-27.91,5-35.75,5.71-6.37.58-15.9.92-22.38.96Z"/>
      <path class="st3" d="M2247.01,281.63l.95,12.4c.16.07.85,1.35,2.29,1.96,6.32,2.68,27.21,10.9,32.97,11.39.31.03.64,0,.95,0l-35.26-25.74c-.32,0-.64,0-.95,0s-.64,0-.95,0Z"/>
      <path class="st10" d="M2858.82,224.42c-.31.01-.64,0-.95,0,.54,2.53-1.26,1.89-2.84,2.35-5.04,1.46-10.23,2.96-15.26,4.32,13.41,4.5,27.81,7.16,41.93,8.58-5.55-6.08-16.22-7.88-20.01-15.26-.95.03-1.91-.04-2.86,0Z"/>
      <path class="st5" d="M2961.74,223.46c.41.09,7.29,3.09,7.62,3.34,1.78,1.35,1.03,1.65-.95,1.43.29.03,1.19,1.03,1.91.95,2.28-.7,4.02-.98,6.67-1.91-1.92-.4,1.05-2.54,1.45-2.84,5.94-4.43,12.65-8.86,17.61-14.32-9.72,3.06-20.34,7.17-30.52,10.94-1.46.54-3.17.59-3.78,2.41Z"/>
      <path class="st10" d="M2237.48,281.63c-4.44-.02-8.91.04-13.34,0,5.42,3.57,11.22,7.14,17.13,10.03,2.49,1.22,4.89,1.57,6.69,2.37l-.95-12.4c-3.17,0-6.36.01-9.53,0Z"/>
      <path class="st10" d="M2623.43,264.46c.47,2.94-.82,1.5-1.91,1.91-12.51,4.68-21.55,8.13-33.35,14.3,11.56-.86,25.61-8.46,36.59-13.5,1.41-.65,2.96-.51,2.49-2.71-1.26-.09-2.57.13-3.81,0Z"/>
      <path class="st9" d="M2629.15,264.46c1.06.06,1.39-.01,1.91,0h-1.91Z"/>
      <path class="st9" d="M2632.01,264.46c.32,0,.64,0,.95,0v-.95c-.39.15-.71.6-.95.95Z"/>
      <path class="st7" d="M3103.73,165.3c5.8,3.2,12.91,7.63,18.11,11.44.7.51.79,1.77.95,1.91s3.27,1.68,3.81,1.91c9.61,4.09,16.83,6.2,25.73,12.4,1.25.87,3.26,1.28,4.76,2.86,4.9-1.88,11.26,2.54,16.2,3.81.13-2.48-1.36-2.44-3.05-3.15-5.29-2.24-10.87-4.14-16.01-6.38-2.27-.99-3.74-1.91-5.72-2.86-3.22-1.54-15.1-5.11-16.09-8.29-.53-1.71.06-1.46.84-2.19,1.49-1.4,2.09-.88,3.81-.95.95-.04,1.91.03,2.86,0,17.07-3.39,34.52-4.96,51.85-6.75.77-.08,1.33-.86,1.52-.88-.99-1.58-3.61-.95-5.23-.97-21.92-.27-43.91-.2-65.81-.94-1.84-.06-3.82.97-3.29-1.91-4.7-.18-11.09-.67-15.25.95Z"/>
      <path class="st9" d="M3210.46,167.21c-1.58-.04-3.19-.05-4.76,0-4.29.13-8.16.53-12.39.95-.19.02-.75.8-1.52.88-17.32,1.79-34.77,3.36-51.85,6.75,35.39-1.11,72.22-2.71,107.69-2.86-11.89-2.54-25.07-5.38-37.17-5.72Z"/>
      <path class="st4" d="M3092.29,179.6v.95c.31-.04.64.04.95,0,9.52-1.27,19.1-2.36,28.59-3.81-5.2-3.82-12.31-8.24-18.11-11.44-.6-.33-1.27-.61-1.91-.95-4.09-2.24-9.25-4.14-13.34-6.67-.71,7.81,1.9,14.26,3.81,21.93Z"/>
      <path class="st7" d="M3196.17,204.39v1.91c.58-.08,1.3-.02,1.91,0,5.48.2,11.37,3.07,16.2,3.81.9.14,1.96-.14,2.86,0,7.26,1.11,14.73,1.31,21.92,2.86,1.93.41,2.39-.75,3.81,1.91,5.71-2.51,14.65-.76,20.97,0,2.03.24,2.47-1.27,5.72.95.99-1.58,3.62-.95,5.23-.97,5.91-.06,13.05-.72,18.6.97,1.52-.64,2.15-.79,3.81-.95,7.69-.74,16.84.19,24.78,0,5.33-.13,7.81-3.47,9.53,3.81.31,0,.65-.04.95,0,.61.08,1.51-.16,1.91,0,.22-.36.83-.66.95-.95.65-1.48.38-2.98,2.57-3.63l15.54-.19c.43-.17,1.31.14,1.9,0-.05-.6.13-1.78,0-1.9-.43-.38-9.63-.04-11.43,0-1.27.02-2.54-.03-3.81,0-12.19.32-25.29.94-38.12.95-4.75,0-9.54.05-14.29,0-32.5-.36-59.59-2.46-91.48-8.58Z"/>
      <path class="st5" d="M3122.79,178.65l-7.62,14.3c9.46,4.72,18.38,9.4,28.59,13.35l-17.15-25.74c-.54-.23-3.65-1.77-3.81-1.91Z"/>
      <path class="st1" d="M3126.6,180.56l17.15,25.74c.96.37,1.92.61,2.86.95l5.72-14.3c-8.9-6.2-16.12-8.31-25.73-12.4Z"/>
      <path class="st10" d="M3093.25,180.56c-.5,2.3,1.17,1.98,2.51,2.69,6.45,3.41,13.1,6.56,19.41,9.71l7.62-14.3c-.16-.14-.25-1.39-.95-1.91-9.49,1.45-19.07,2.55-28.59,3.81Z"/>
      <path class="st5" d="M3152.33,192.95l-5.72,14.3c8.89,3.28,15.58,5.13,24.78,7.63v-.95c-1.53-.81-2.67-2.06-3.78-3.37-3.58-4.22-7-11.07-10.51-14.75-1.5-1.58-3.51-1.99-4.76-2.86Z"/>
      <path class="st9" d="M3196.17,206.3c-6.37.88-16.12,7.93-22.87,9.53,9.08,2.35,17.38,4.23,26.68,5.72.58-5.24-1.21-10.15-1.91-15.26-.6-.02-1.33-.08-1.91,0Z"/>
      <path class="st4" d="M3174.25,199.63c-.81,3.72-.16,10.54-.92,13.7-.22.9-1.26.69-1.94.61v.95c.39.11,1.04.73,1.91.95,6.75-1.61,16.5-8.66,22.87-9.53v-1.91c-1.88-.36-3.84-.57-5.72-.95l-.95-.95c-1.96-.41-4.31-.43-6.67-.95l-.95-.95c-2.17-.51-5.51-.41-7.62-.95Z"/>
      <path class="st9" d="M3214.27,210.11l-12.39,11.44c9.06,1.39,12.35,2.43,21.92,1.91l-6.67-13.35c-.9-.14-1.96.14-2.86,0Z"/>
      <path class="st3" d="M3263.83,214.88l-13.34,10.49c9.84-.03,18.81-.34,28.59-.95-3.19-2.08-6.63-6.59-9.53-8.58-3.24-2.23-3.69-.71-5.72-.95Z"/>
      <path class="st1" d="M3157.09,195.81c3.51,3.68,6.93,10.53,10.51,14.75,1.11,1.31,2.25,2.56,3.78,3.37.68.08,1.73.29,1.94-.61.76-3.15.11-9.97.92-13.7-.3-.08-.66.08-.95,0-4.94-1.27-11.3-5.69-16.2-3.81Z"/>
      <path class="st1" d="M3217.13,210.11l6.67,13.35c.87-.05,2.05-.12,2.86,0l12.39-10.49c-7.19-1.55-14.66-1.75-21.92-2.86Z"/>
      <path class="st9" d="M3239.05,212.97l-12.39,10.49c8.14,1.2,12.37,1.73,20.97,1.91-2.1-3.05-3.14-7.45-4.76-10.49-1.42-2.65-1.88-1.49-3.81-1.91Z"/>
      <path class="st1" d="M3242.86,214.88c1.62,3.04,2.67,7.44,4.76,10.49.89.02,1.89,0,2.86,0l13.34-10.49c-6.32-.76-15.25-2.51-20.97,0Z"/>
      <path class="st1" d="M3198.07,206.3c.7,5.1,2.48,10.01,1.91,15.26.6.1,1.3-.09,1.91,0l12.39-11.44c-4.83-.75-10.72-3.61-16.2-3.81Z"/>
      <path class="st1" d="M3269.54,215.83c2.9,1.99,6.33,6.5,9.53,8.58.63-.04,1.28.04,1.91,0,3.06-2.59,8.89-7.1,12.39-8.58-5.55-1.69-12.69-1.03-18.6-.97-1.61.02-4.24-.61-5.23.97Z"/>
      <path class="st3" d="M3293.37,215.83c-3.5,1.48-9.33,5.99-12.39,8.58,7.82-.54,15.41-2.06,22.87-2.86l-6.67-6.67c-1.66.16-2.29.31-3.81.95Z"/>
      <path class="st1" d="M3297.18,214.88l6.67,6.67c.62-.07,1.28.07,1.91,0l16.2-6.67c-7.94.19-17.09-.74-24.78,0Z"/>
      <path class="st3" d="M3321.96,214.88l-16.2,6.67c.11-.01.65.97,2.09.81,7.49-.86,15.34-3.82,23.64-3.67-1.72-7.28-4.2-3.94-9.53-3.81Z"/>
      <path class="st9" d="M3335.3,217.74c6.45-.95,12.02-1.43,18.11-3.81l-15.54.19c-2.19.65-1.92,2.15-2.57,3.63Z"/>
      <path class="st9" d="M3133.27,176.74l3.81-.95c-1.72.07-2.32-.45-3.81.95Z"/>
      <path class="st9" d="M3252.39,173.88l-.95-.95c.21,0,.72.95.95.95Z"/>
      <path class="st7" d="M3190.45,203.44c-.07-.01-.17-.79-.95-.95l.95.95Z"/>
      <path class="st7" d="M3182.82,201.53c-.07-.01-.24-.79-.95-.95l.95.95Z"/>
      <path class="st10" d="M3143.75,138.6l-56.21,17.2c.02.64.97,1.56.94,1.87,4.09,2.53,9.25,4.44,13.34,6.67.46-1.6.77-2.21,2.17-3.15,12.49-8.4,27.98-12.98,39.76-22.59Z"/>
      <path class="st4" d="M3118.98,164.35c-.53,2.88,1.46,1.85,3.29,1.91,21.9.73,43.9.66,65.81.94,1.61.02,4.24-.61,5.23.97,4.23-.42,8.1-.82,12.39-.95v-1.91c-16.8-.35-33.7.14-50.51,0-5.07-.04-10.18.08-15.25,0-7.07-.11-13.96-.69-20.97-.95Z"/>
      <path class="st7" d="M3205.7,165.3v1.91c1.58-.05,3.19-.04,4.76,0v-.95c-.49-.01-2.6-.91-4.76-.95Z"/>
      <path class="st3" d="M2310.86,265.42c-1.24.09-2.57.04-3.81,0-.32-.01-.64,0-.95,0v.95s-4.76,15.26-4.76,15.26c37.98-1.21,89.85-17.41,126.54-29.28,3.34-1.08,6.69-2.28,9.73-4.09-2.02-.04-4.03-.1-6.06.12-39.42,4.31-81.65,14.17-120.69,17.04Z"/>
      <path class="st8" d="M2382.33,234.9c-22.13,5.18-46.32,11.73-68.61,15.26l-6.67,15.26c1.24.04,2.57.09,3.81,0-.49-2.35,1.09-2.02,2.59-2.61,27.27-10.67,56.46-21.06,84.13-30.76-5.12.55-10.25,1.69-15.25,2.86Z"/>
      <path class="st10" d="M2461.43,241.58c-1.1-.05-2.85-.19-3.81,0-4.15.8-10.61,4.97-15.25,5.72,20.06,6.64,47.07,10.85,68.26,13.23,2.34.26,4.68.12,7.02.12-14.44-4.92-29.12-10.49-44.03-14.58l-6.47-3.54c-2.16-.11-4.09-.88-5.72-.95Z"/>
      <path class="st4" d="M2457.62,241.58l-51.46-10.48,33.35,16.2c.85.15,2.17-.23,2.86,0,4.64-.76,11.1-4.92,15.25-5.72Z"/>
      <path class="st3" d="M1918.24,97.6c-1.46-.24-3.3.24-4.76,0l-70.52,17.16c15.96-1.69,34.97-6.43,50.51-6.67,1.23-.02,2.62-.12,3.81,0,1.39-1.39,3.08-.89,4.76-.95.63-.02,1.27.01,1.91,0,1.9-.03,3.81,0,5.72,0,.63,0,1.27.01,1.91,0,15.12-.32,30.05-1.13,45.28-.97,1.61.02,4.24-.61,5.23.97,1.27-.04,2.54.05,3.81,0,.55-3.02-1.49-1.61-3.27-1.93-10.28-1.85-20.78-4.02-31.04-5.7-4.41-.72-8.93-1.19-13.34-1.91Z"/>
      <path class="st8" d="M1903.94,120.49c12.66-.69,27.75,4.01,40.49,2.85,11.94-1.09,26.99-7.09,38.6-7.62-3.96-1.84-9.73-.85-14.29-.95-1.9-.05-3.82.08-5.72,0-3.06-.13-5.66-.85-8.58-.95-15.2-.56-24.17.37-39.11,3.3-3.61.71-8.28,1.47-11.4,3.37Z"/>
      <path class="st2" d="M1902.99,120.49c-3.53.44-16.35,7.04-19.74,9.28-.53.35-3.08,2.9-3.13,3.12l21.92-.95c.64-3.71,1.51-7.38.95-11.44Z"/>
      <path class="st9" d="M3047.5,151c6.01,5.09,11.66,10.69,18.11,15.26,5.26-1.36,9.6-4.67,14.3-7.15,1.74-.91,9.51-2.69,1.9-4.29-10.52-2.22-23.5-1.54-34.31-3.81Z"/>
      <path class="st3" d="M2670.13,183.42c-18.6,3.21-40.55,9.98-59.43,14.43-1.57.37-3.29.36-4.42,1.78,21.33-1.23,45.11-7.07,65.75-7.63l1.91-8.58c-1.23.1-2.68-.19-3.81,0Z"/>
      <path class="st10" d="M2731.12,194.86c.38.07,1.38,1.52,1.91,1.91,5.56.3,23.39,5.28,29.55,7.14,10.65,3.21,21.19,8.95,32.39,10.98-.94-2.28-34.25-23.21-40.02-28.6-.61-.57-1.62-.84-1.91-1.91-.53.3-2.64-.03-3.5.74l-18.42,9.75Z"/>
      <path class="st5" d="M2726.35,181.51c-11.59-.05-27.31-.12-38.62.93-1.68.16-3.28.32-4.27,1.93,11.76,2.43,23.45,6.04,35.26,8.58,4.43.95,8.42,1.17,12.39,1.91l8.58-13.34c-4.44-.03-8.9,0-13.34,0Z"/>
      <path class="st1" d="M2799.73,148.14c-1.53,4.1-3.98,7.99-4.76,12.4,5.97-2.59,13.14-4.46,19.33-6.92,1.49-.59,3.07-.26,2.58-2.61-5.11-.39-11.51-3.89-17.15-2.86Z"/>
      <path class="st11" d="M2020.21,107.14c1.75.65,3.72,2.34,5.92,3.14,5.73,2.07,12.21,3.18,17.9,5.44,6,1.19,12.84,3.33,19.06,4.77.66-1.51,3.08-.22,4.26,0,4.74.91,10.13,2.21,14.8,2.85l-2.84-2.35-59.1-13.86Z"/>
      <path class="st1" d="M3275.26,79.49c-.82.41-.58.86-.29,1.55,2.15,5.15,7.33,9.88,8.86,15.61.89.13,2.07-.19,2.86,0,5.47-3.26,11.59-6.07,16.2-10.49-9.11-2.45-18.14-5.82-27.64-6.67Z"/>
      <path class="st1" d="M2822.6,150.04c11.98-1.54,22.55-6.64,33.35-8.58l-.95-11.44c-3.64.42-7.67,3.06-10.77,4.95-7.36,4.5-14.73,9.88-21.63,15.07Z"/>
      <path class="st10" d="M2673.94,183.42l-1.91,8.58c6.74-.18,16.33,1.7,23.31,1.95,7.77.27,15.62-.28,23.39-.04v-.95c-11.81-2.54-23.5-6.16-35.26-8.58-1.87-.39-6.67-1.85-7.62-1.91-1.01-.06-1.76.94-1.91.95Z"/>
      <path class="st1" d="M3318.15,78.53c-3.35.37-9.61,5.3-12.39,7.63,7.27,2,14.46,5.18,21.92,6.67.77-.2,1.98.13,2.86,0-1.08-2.15-8.53-13.32-9.76-14.09-.73-.45-1.79-.3-2.63-.21Z"/>
      <path class="st11" d="M2085.01,123.35c.09,0-.31.99,1.43,1s1.34-1,1.43-1c-.95-1.16-1.91-1.15-2.86,0Z"/>
      <path class="st8" d="M1880.12,132.88c-.54,2.4,7.57,26.19,9.08,30.5.32.92.11,2.19,1.39,1.91,3.31-11.26,9.44-21.8,11.45-33.37l-21.92.95Z"/>
      <path class="st0" d="M1985.9,117.63l32.4,18.12c1.27-.04,2.54.03,3.81,0l22.87-2.86c-11.13-4.5-23.66-8.38-35.26-11.44-1.23-.32-2.57-.64-3.81-.95-4.98-1.24-16.67-4.49-20.97-4.77.32.64.63,1.27.95,1.91Z"/>
      <path class="st9" d="M1997.33,134.79c.74.16,1.98.67,2.86.95,6.02-.13,12.09.19,18.11,0l-32.4-18.12c2.99,5.85,8.2,11.33,11.44,17.16Z"/>
      <path class="st3" d="M2114.55,198.67c.15.89.16,1.74.88,2.41l37.25,32.38,7.61,8.12c.56.15,3.03,2.72,2.85-.46-15.78-19.18-29.47-40.1-44.78-59.61-.2-.26-.62-.55-.95-.95l-1.91-1.91c-.31-.33-.63-.64-.95-.95.73,6.42-1,14.87,0,20.98Z"/>
      <path class="st4" d="M2164.1,244.44c.64,0,1.27-.01,1.91,0,5.32.11,18.79,3.48,24.78,4.77l-.95-3.81c-.59-.54-1.14-1.21-1.91-1.91-1.89.08-2.93-.93-2.86-2.86-1.7-1.49-3.52-2.69-4.76-3.81-1.82.31-2.23-.07-1.91-1.91-3.83-3.46-7.61-7.02-11.44-10.49-2.18.67-1.86,2.46-1.96,4.24-.27,4.8.99,11.43-.9,15.78Z"/>
      <path class="st0" d="M2041.17,175.79l33.35,37.19c1.12.19,2.67,1.69,3.81,1.91,10.9,2.05,28.71,4.38,38.55,8.62,2.32,1,3.05,1.57,4.33,3.78,1.69.49,3.39,1.47,4.76,0-28.88-14.53-55.86-36.99-84.81-51.49Z"/>
      <path class="st0" d="M2130.75,229.18c-.44,2.55.6,1.95,2.86,1.91-1.1-.75-.95-.97-2.86-1.91Z"/>
      <path class="st0" d="M2135.51,232.04c-.14-.52-.51-.74-.95-.95.17.4.53.85.95.95Z"/>
      <path class="st9" d="M2931.24,181.51c-.54,1.82,6.87,21.66,6.67,25.74,27.09-5.76,60.31-13.71,87.31-17.05,1.79-.22,4.83-.82,6.08.84.96-.63,3.42-.18,2.85-2.86-34.22-2.8-68.63-4.37-102.92-6.68Z"/>
      <path class="st3" d="M2754.94,186.28c5.78,5.39,39.09,26.33,40.02,28.6.17.42-.12,1.33,0,1.91.88-.13,2.65-.19,2.86.95.27-.11.68.11.95,0,.29-.12.6-.81.95-.95,4.74-1.92,12.73-5.37,17.15-6.67l-61.94-23.84Z"/>
      <path class="st9" d="M2565.3,254.93v9.53c16.87.73,33.89.76,51,.94,1.61.02,4.24-.61,5.23.97,1.09-.41,2.38,1.04,1.91-1.91-17.2-1.82-34.41-6.78-51.46-9.53-2.56-.41-5.58.18-6.67,0Z"/>
      <path class="st4" d="M2531.95,248.25c9.49,1.28,19.16,4.2,28.59,5.72,1.77.28,3.39.73,4.76.95,1.09.18,4.11-.41,6.67,0-.55-3.02,1.49-1.61,3.27-1.92,10.26-1.79,20.87-2.31,31.04-4.75-24.7.9-49.62-.67-74.33,0Z"/>
      <path class="st2" d="M2616.76,247.3l44.79,6.67c.79-.23,1.74-.93,1.91-.95l-3.81-9.53c-.31.04-.64-.04-.95,0-13.81,1.64-28.05,2.86-41.93,3.81Z"/>
      <path class="st11" d="M2248.92,281.63l35.26,25.74c1.82,0,2.93-.02,4.75-.46,3.4-.83,9.38-4.75,11.45-5.26-11.94-6.51-26.02-9.04-38.6-14.29-2.13-.89-6.09-2.04-6.19-4.78-1.23,0-4.08-.96-6.67-.95Z"/>
      <path class="st4" d="M2856.91,200.58c-.76.22-2.09-.22-2.86,0l-.95.95c-.54.15-1.37-.15-1.91,0l-.95.95c-.77.22-2.09-.22-2.86,0-.51,1.76-2.12,2.06-3.81,1.91-.78.21-2.07-.21-2.86,0l-.95.95c-.8.21-2.06-.21-2.86,0-2.66,2.46-10.8,4.96-14.34,5.37-2.12.25-2.67-.61-2.81-.6-.88.05-2.2-.19-2.86,0-4.42,1.3-12.41,4.76-17.15,6.67,19.01.49,39.44,7.09,58.13,7.63.31,0,.64.01.95,0,.91-6.21,1.69-14.31,1-20.55-.24-2.16-.33-3.3-2.91-3.29Z"/>
      <path class="st8" d="M2189.83,245.39l.95,3.81c1.18.25,3.52,2.57,5.72,1.91-2.34-4.79-4.24-3.48-6.67-5.72Z"/>
      <path class="st4" d="M2669.18,241.58c-2.8.36-6.39,1.53-9.53,1.91l3.81,9.53c.78-.13,1.99-.04,2.86,0l40.98-16.21c-12.49,2.24-25.59,3.17-38.12,4.77Z"/>
      <path class="st7" d="M2199.36,252.07c.32.64.63,1.28.95,1.91l37.17,27.65c3.17.01,6.36,0,9.53,0,.32,0,.64,0,.95,0l4.76-24.79v-.95c-17.81.09-35.62-2.83-53.37-3.81Z"/>
      <path class="st8" d="M2856.91,200.58c2.58-.02,2.67,1.13,2.91,3.29.69,6.24-.1,14.33-1,20.55.95-.04,1.91.03,2.86,0l68.61-42.91c-21.09,1.56-53,13.08-73.38,19.07Z"/>
      <path class="st6" d="M2358.51,308.32h2.86c-1.47-.13-2.69.02-2.86,0Z"/>
      <path class="st1" d="M2252.73,256.83l-4.76,24.79c.32,0,.64,0,.95,0,2.59,0,5.44.96,6.67.95,2.22,0,4.45.01,6.67,0-.35-2.8.36-1.58,1.91-1.91,14-2.98,27.76-11.31,41.93-14.3v-.95s-53.37-8.58-53.37-8.58Z"/>
      <path class="st3" d="M2467.15,242.53l6.47,3.54c14.91,4.08,29.6,9.66,44.03,14.58,3.02,1.03,4.24.54,6.67.95v-13.35c-18.8-2.37-38.04-4.74-57.18-5.72Z"/>
      <path class="st10" d="M2264.17,280.67v.95c12.35-.08,24.83.39,37.17,0l4.76-15.26c-14.17,3-27.93,11.33-41.93,14.3Z"/>
      <path class="st11" d="M2532.25,260.52c8.01-1.64,15.92-3.24,23.98-4.66,1.67-.29,3.32-.13,4.31-1.89-9.43-1.52-19.1-4.45-28.59-5.72-2.37-.32-5.24.3-7.62,0v13.35c.31.05.64-.04.95,0"/>
      <path class="st3" d="M2514.86,260.68c11.96,1.12,38.43,3.26,50.44,3.78v-9.53c-1.37-.22-3-.67-4.76-.95-.99,1.76-2.64,1.59-4.31,1.89"/>
      <path class="st11" d="M2264.17,280.67c-1.55.33-2.25-.89-1.91,1.91.84,0,1.74-.95,1.91-.95v-.95Z"/>
      <path class="st3" d="M2525.28,261.6"/>
      <path class="st3" d="M2718.73,192.95v.95s1.9.98,1.9.98c-19.48,15.12-39.48,30.1-59.19,45.15-1.3.99-2.87,1.27-2.74,3.45.31-.04.64.04.95,0,3.14-.37,6.73-1.55,9.53-1.91-.43-2.48.63-2.77,2.14-4.06,10.31-8.85,27.39-18.42,39.14-26.63,5.26-3.67,16.76-14.44,22.57-14.13-.53-.38-1.53-1.84-1.91-1.91-3.97-.74-7.96-.95-12.39-1.91Z"/>
      <path class="st0" d="M2252.73,255.88v.95s53.37,8.58,53.37,8.58c.32,0,.64-.01.95,0l6.67-15.26c-18.15,2.87-42.73,5.62-60.99,5.72Z"/>
      <path class="st8" d="M2819.74,210.11c.14,0,.69.85,2.81.6,3.54-.41,11.68-2.91,14.34-5.37-5.73,1.48-11.56,2.79-17.15,4.77Z"/>
      <path class="st8" d="M2843.57,204.39c1.69.16,3.3-.15,3.81-1.91-2.66.76-3.59,1.85-3.81,1.91Z"/>
      <path class="st8" d="M2850.24,202.49l.95-.95c-.71.2-.89.93-.95.95Z"/>
      <path class="st8" d="M2853.1,201.53l.95-.95c-.77.22-.89.94-.95.95Z"/>
      <path class="st8" d="M2839.76,205.35l.95-.95c-.76.2-.89.94-.95.95Z"/>
      <path class="st11" d="M2054.51,156.72l60.04,41.95c-1-6.11.73-14.56,0-20.98-.32-.31-.62-.65-.95-.95-19.04-7.6-40.27-12.18-59.08-20.02Z"/>
      <path class="st2" d="M2077.38,150.04c.54,3.07-1.55,1.61-3.33,1.87-6.61.99-16.15,3.44-22.4,2.9.7,1.04,1.76,1.45,2.86,1.91,18.82,7.84,40.04,12.42,59.08,20.02-10.15-9.05-24.56-19.53-36.21-26.7Z"/>
      <path class="st4" d="M2046.89,133.83l3.81,20.98c.3.06.64-.03.95,0,6.25.55,15.8-1.91,22.4-2.9,1.78-.27,3.86,1.2,3.33-1.87-9.38-5.77-20.41-11.89-30.49-16.21Z"/>
      <path class="st1" d="M2044.98,132.88l-22.87,2.86c-.11,2.11,1.38,2.5,2.73,3.47,5.19,3.7,18.51,12.4,23.95,14.65.61.25,1.37.86,1.91.95l-3.81-20.98c-.58-.25-1.16-.65-1.91-.95Z"/>
      <path class="st8" d="M2185.07,240.63c-.07,1.93.97,2.94,2.86,2.86-.64-.58-1.4-1.58-2.86-2.86Z"/>
      <path class="st8" d="M2178.4,234.9c-.32,1.84.08,2.22,1.91,1.91-.21-.19-.97-1.06-1.91-1.91Z"/>
      <path class="st8" d="M2115.5,178.65l1.91,1.91c-1.36-1.67-1.45-1.42-1.91-1.91Z"/>
      <path class="st3" d="M2018.3,135.74c-6.01.19-12.09-.13-18.11,0,12.93,4.21,27.16,11.99,40.46,16.25l8.14,1.87c-5.44-2.25-18.76-10.95-23.95-14.65-1.35-.96-2.84-1.36-2.73-3.47-1.27.03-2.54-.04-3.81,0Z"/>
    </g>
    <polygon class="st1" points="1758.89 183.37 1550.77 59.13 1851.43 59.13 1758.89 183.37"/>
  </g>
  <polygon class="st3" points="1550.77 191.04 1550.77 59.13 1758.89 183.37 1550.77 191.04"/>
  <polygon class="st5" points="1550.77 191.04 1758.89 183.37 1851.43 191.04 1550.77 191.04"/>
  <polygon class="st4" points="1758.89 183.37 1851.43 59.13 1851.43 191.04 1758.89 183.37"/>
</svg>