<?xml version="1.0" encoding="UTF-8"?>
<svg xmlns="http://www.w3.org/2000/svg" version="1.1" viewBox="0 0 4402.5 1931.59">
  <!-- Generator: Adobe Illustrator 29.7.1, SVG Export Plug-In . SVG Version: 2.1.1 Build 8)  -->
  <defs>
    <style>
      .st0 {
        fill: #644a30;
      }

      .st1 {
        fill: #987549;
      }

      .st2 {
        fill: #795c3c;
      }

      .st3 {
        fill: #a88562;
      }

      .st4 {
        fill: #977449;
      }

      .st5 {
        display: none;
      }
    </style>
  </defs>
  <g id="Calque_1" class="st5">
    <circle class="st3" cx="2201.25" cy="928.23" r="637.8"/>
    <path class="st4" d="M2201.25,1566.02l127.88-686.07,194.03,599-321.91,87.07Z"/>
    <path class="st3" d="M2201.25,1566.02l-321.91-87.07,449.79-599-127.88,686.07Z"/>
    <path class="st0" d="M2329.13,879.95l422.84-273.63,87.07,321.91-509.91-48.28Z"/>
    <path class="st4" d="M2329.13,879.95l194.03-502.44,228.81,228.81-422.84,273.63Z"/>
    <path class="st4" d="M1941.82,650.8l-62.48-273.29,321.91-87.08-259.43,360.37Z"/>
    <path class="st3" d="M1650.53,606.32l228.81-228.81,62.48,273.29-291.29-44.48Z"/>
    <path class="st3" d="M2751.97,1250.14l-422.84-370.19,509.91,48.28-87.07,321.91Z"/>
    <path class="st3" d="M1941.82,650.8l259.43-360.37,127.88,589.52-387.31-229.15Z"/>
    <path class="st3" d="M2329.13,879.95l-127.88-589.52,321.91,87.08-194.03,502.44Z"/>
    <g>
      <path class="st4" d="M1650.53,1250.14l291.29-599.34,387.31,229.15-678.6,370.19Z"/>
      <path class="st0" d="M1879.34,1478.95l-228.81-228.81,678.6-370.19-449.79,599Z"/>
      <path class="st1" d="M1650.53,1250.14l-87.08-321.91,378.37-277.43-291.29,599.34Z"/>
      <path class="st0" d="M1563.45,928.23l124.8-215.54,253.57-61.89-378.37,277.43Z"/>
      <path class="st0" d="M1688.25,712.69l-37.72-106.37,291.29,44.48-253.57,61.89Z"/>
      <path class="st0" d="M1563.45,928.23l87.08-321.91,37.72,106.37-124.8,215.54Z"/>
    </g>
    <path class="st4" d="M2523.16,1478.95l-194.03-599,422.84,370.19-228.81,228.81Z"/>
  </g>
  <g id="Calque_2">
    <polygon class="st4" points="3047.45 1819.28 0 0 4402.5 0 3047.45 1819.28"/>
    <polygon class="st0" points="0 1931.59 0 0 3047.45 1819.28 0 1931.59"/>
    <polygon class="st2" points="0 1931.59 3047.45 1819.28 4402.5 1931.59 0 1931.59"/>
    <polygon class="st3" points="3047.45 1819.28 4402.5 0 4402.5 1931.59 3047.45 1819.28"/>
  </g>
</svg>